<?xml version="1.0" standalone="no"?>
<!DOCTYPE svg PUBLIC "-//W3C//DTD SVG 1.1//EN" "http://www.w3.org/Graphics/SVG/1.1/DTD/svg11.dtd" >
<svg xmlns="http://www.w3.org/2000/svg" xmlns:xlink="http://www.w3.org/1999/xlink" version="1.1">
<metadata>
Created by FontForge 20201107 at Wed Nov 25 13:54:35 2015
 By Unknown
Copyright (c) 2015 by Pascal Zoghbi. All rights reserved.
</metadata>
<defs>
<font id="ExpoArabic-SemiBold" horiz-adv-x="0" >
  <font-face 
    font-family="Expo Arabic SemiBold"
    font-weight="600"
    font-stretch="normal"
    units-per-em="1000"
    panose-1="0 0 7 0 0 0 0 0 0 0"
    ascent="750"
    descent="-250"
    x-height="500"
    cap-height="689"
    bbox="-207 -526 1372 1137"
    underline-thickness="40"
    underline-position="-190"
    unicode-range="U+0020-FEFC"
  />
<missing-glyph horiz-adv-x="284" 
 />
    <glyph glyph-name="uniFEF5" unicode="&#xfedf;&#xfe82;" horiz-adv-x="663" arabic-form="isolated" 
d="M139 678q-43 0 -49 -39h-64q1 57 28.5 89t75.5 32q22 0 63 -18.5t64 -18.5q45 0 79 25l-1 -82q-37 -25 -77 -25q-24 0 -62 18.5t-57 18.5zM453 713l132 17v-522q0 -208 -231 -208h-319l-22 140h194l-85 426l131 33l77 -459h24h1q50 0 73.5 27t23.5 85z" />
    <glyph glyph-name="uniFEF6" unicode="&#xfee0;&#xfe82;" horiz-adv-x="683" arabic-form="final" 
d="M139 678q-43 0 -49 -39h-64q1 57 28.5 89t75.5 32q22 0 63 -18.5t64 -18.5q45 0 79 25l-1 -82q-37 -25 -77 -25q-24 0 -62 18.5t-57 18.5zM692 131l1 -121q0 -10 -10 -10q-118 0 -175 54q-46 -23 -121 -38.5t-129 -15.5h-223l-22 140h194l-85 426l131 33l76 -455
q66 6 127 19q-3 21 -3 45l-1 505l133 17v-478q0 -58 23.5 -85t73.5 -27q10 0 10 -9z" />
    <glyph glyph-name="uniFEF7" unicode="&#xfedf;&#xfe84;" horiz-adv-x="663" arabic-form="isolated" 
d="M301 728l-16 -76h-234v76h46q-13 23 -13 53q0 38 27.5 63.5t68.5 25.5q42 0 86 -19v-67q-39 15 -64 15q-18 0 -30 -9.5t-12 -24.5q0 -20 14 -37h127zM453 713l132 17v-522q0 -208 -231 -208h-319l-22 140h194l-85 426l131 33l77 -459h24h1q50 0 73.5 27t23.5 85z" />
    <glyph glyph-name="uniFEF8" unicode="&#xfee0;&#xfe84;" horiz-adv-x="683" arabic-form="final" 
d="M301 728l-16 -76h-234v76h46q-13 23 -13 53q0 38 27.5 63.5t68.5 25.5q42 0 86 -19v-67q-39 15 -64 15q-18 0 -30 -9.5t-12 -24.5q0 -20 14 -37h127zM692 131l1 -121q0 -10 -10 -10q-118 0 -175 54q-46 -23 -121 -38.5t-129 -15.5h-223l-22 140h194l-85 426l131 33
l76 -455q66 6 127 19q-3 21 -3 45l-1 505l133 17v-478q0 -58 23.5 -85t73.5 -27q10 0 10 -9z" />
    <glyph glyph-name="uniFEF9" unicode="&#xfedf;&#xfe88;" horiz-adv-x="663" arabic-form="isolated" 
d="M453 713l132 17v-522q0 -208 -231 -208h-319l-22 140h194l-85 426l131 33l77 -459h24h1q50 0 73.5 27t23.5 85zM283 -147q0 -21 13 -37h127l-17 -77h-234v77h47q-12 24 -12 52q0 38 27 64t68 26q40 0 86 -20v-67q-38 15 -63 15q-19 0 -30.5 -9t-11.5 -24z" />
    <glyph glyph-name="uniFEFA" unicode="&#xfee0;&#xfe88;" horiz-adv-x="683" arabic-form="final" 
d="M692 131l1 -121q0 -10 -10 -10q-118 0 -175 54q-46 -23 -121 -38.5t-129 -15.5h-223l-22 140h194l-85 426l131 33l76 -455q66 6 127 19q-3 21 -3 45l-1 505l133 17v-478q0 -58 23.5 -85t73.5 -27q10 0 10 -9zM284 -148q0 -22 14 -37h126l-17 -76h-234v76h47
q-12 24 -12 53q0 38 27 63.5t68 25.5q42 0 86 -19v-67q-37 15 -63 15q-19 0 -30.5 -9.5t-11.5 -24.5z" />
    <glyph glyph-name="uniFEFB" unicode="&#xfedf;&#xfe8e;" horiz-adv-x="663" arabic-form="isolated" 
d="M453 713l132 17v-522q0 -208 -231 -208h-319l-22 140h194l-85 426l131 33l77 -459h24h1q50 0 73.5 27t23.5 85z" />
    <glyph glyph-name="uniFEFC" unicode="&#xfee0;&#xfe8e;" horiz-adv-x="683" arabic-form="final" 
d="M692 131l1 -121q0 -10 -10 -10q-118 0 -175 54q-46 -23 -121 -38.5t-129 -15.5h-223l-22 140h194l-85 426l131 33l76 -455q66 6 127 19q-3 21 -3 45l-1 505l133 17v-478q0 -58 23.5 -85t73.5 -27q10 0 10 -9z" />
    <glyph glyph-name="uni066E.init" unicode="&#x66e;" horiz-adv-x="284" 
d="M0 0q-10 0 -10 10l1 121q0 9 10 9q98 0 98 109l-1 238l133 16v-299q0 -204 -231 -204z" />
    <glyph glyph-name="uni066E.medi" unicode="&#x66e;" horiz-adv-x="341" 
d="M341 140q10 0 10 -9v-121q0 -10 -10 -10q-88 0 -155 65q-57 -65 -186 -65q-10 0 -10 10l1 121q0 9 10 9q98 0 98 109l-1 134l133 17v-196q0 -11 -2 -31q52 -33 112 -33z" />
    <glyph glyph-name="uni066E.fina" unicode="&#x66e;" horiz-adv-x="866" 
d="M866 140q10 0 10 -9v-121q0 -10 -10 -10q-88 0 -155 65q-53 -61 -168 -65h-3h-259q-250 0 -250 232q0 80 28 208l114 -14q-18 -98 -18 -155q0 -67 38.5 -99t120.5 -32h212q98 0 98 109l-1 134l133 17v-196q0 -21 -1 -31q50 -33 111 -33z" />
    <glyph glyph-name="uni066F.fina" unicode="&#x66f;" horiz-adv-x="793" 
d="M793 140q10 0 10 -9v-121q0 -10 -10 -10h-58q-37 -215 -374 -215q-154 0 -242 69t-88 196q0 101 44 235l107 -29q-30 -95 -30 -168q1 -92 59.5 -139.5t169.5 -47.5q188 0 224 99h-97q-105 0 -169 66t-64 176t68 182t170 71q100 -1 163 -66.5t63 -174.5v-114h54zM395 246
q0 -55 34.5 -84t91.5 -29q25 0 87 4l-1 107q0 54 -28 85t-76 32q-47 1 -77.5 -31t-30.5 -84z" />
    <glyph glyph-name="uni06A1.init" unicode="&#x6a1;" horiz-adv-x="548" 
d="M272 505q103 0 171.5 -67.5t68.5 -169.5q0 -123 -76.5 -195.5t-208.5 -72.5h-227q-10 0 -10 10v121q0 9 10 9h68q-34 71 -34 128q0 105 67 171t171 66zM230 140q69 0 109 34t40 93q0 48 -31.5 79.5t-78.5 31.5t-80 -34t-33 -81q0 -57 36 -123h38z" />
    <glyph glyph-name="uni06A1.medi" unicode="&#x6a1;" horiz-adv-x="558" 
d="M558 140q10 0 10 -9v-121q0 -10 -10 -10q-127 0 -268 45q-121 -45 -290 -45q-10 1 -10 10v121q0 9 10 9q65 0 113 4q-58 64 -58 146q0 92 64 153.5t163 61.5t163 -63t64 -152q0 -78 -59 -144q50 -6 108 -6zM276 377q-45 0 -73 -29t-28 -74q0 -39 27.5 -73t74.5 -50
q48 19 76.5 52.5t28.5 70.5q0 45 -31.5 74t-74.5 29z" />
    <glyph glyph-name="uni06A1.fina" unicode="&#x6a1;" horiz-adv-x="962" 
d="M965 140q10 0 10 -9v-121q0 -10 -10 -10q-133 0 -268 45q-116 -43 -279 -45h-1h-138q-248 0 -248 223q0 73 21 165l114 -14q-13 -78 -13 -111q0 -63 39 -93t119 -30h96q65 0 113 4q-58 63 -58 146q0 92 63.5 153.5t162.5 61.5q100 0 164 -63t64 -152q0 -78 -59 -144
q48 -6 108 -6zM683 377q-45 0 -73.5 -29t-28.5 -74q0 -40 28 -73.5t75 -49.5q48 19 76 52t28 71q0 45 -31 74t-74 29z" />
    <glyph glyph-name="uniFB6B" unicode="&#x6a4;" horiz-adv-x="962" arabic-form="final" 
d="M758 806l-64 -64l-64 64l63 64zM693 653l-79 -78l-97 95l95 95l81 -78l80 78l97 -95l-96 -95zM965 140q10 0 10 -9v-121q0 -10 -10 -10q-132 0 -267 45q-117 -43 -281 -45h-1h-137q-248 0 -248 223q0 71 20 165l114 -14q-12 -81 -12 -111q0 -63 38.5 -93t119.5 -30h96
q65 0 113 4q-58 63 -58 146q0 92 64 153.5t163 61.5t163 -63t64 -152q0 -80 -59 -144q49 -6 108 -6zM683 377q-45 0 -73 -29t-28 -74q0 -40 27.5 -73.5t74.5 -49.5q48 19 76.5 52.5t28.5 70.5q0 45 -31.5 74t-74.5 29z" />
    <glyph glyph-name="uniFB6C" unicode="&#x6a4;" horiz-adv-x="548" arabic-form="initial" 
d="M327 806l-64 -64l-64 64l63 64zM262 653l-79 -78l-97 95l95 95l81 -78l80 78l97 -95l-96 -95zM272 505q103 0 171.5 -67.5t68.5 -169.5q0 -123 -76.5 -195.5t-208.5 -72.5h-227q-10 0 -10 10v121q0 9 10 9h68q-34 71 -34 128q0 105 67 171t171 66zM230 140q69 0 109 34
t40 93q0 48 -31.5 79.5t-78.5 31.5t-80 -34t-33 -81q0 -57 36 -123h38z" />
    <glyph glyph-name="uniFB6D" unicode="&#x6a4;" horiz-adv-x="558" arabic-form="medial" 
d="M335 806l-64 -64l-64 64l63 64zM270 653l-79 -78l-97 95l95 95l81 -78l80 78l97 -95l-96 -95zM558 140q10 0 10 -9v-121q0 -10 -10 -10q-127 0 -268 45q-121 -45 -290 -45q-10 1 -10 10v121q0 9 10 9q65 0 113 4q-58 64 -58 146q0 92 64 153.5t163 61.5t163 -63t64 -152
q0 -78 -59 -144q50 -6 108 -6zM276 377q-45 0 -73 -29t-28 -74q0 -39 27.5 -73t74.5 -50q48 19 76.5 52.5t28.5 70.5q0 45 -31.5 74t-74.5 29z" />
    <glyph glyph-name="uniFB9F" unicode="&#x6ba;" horiz-adv-x="731" arabic-form="final" 
d="M731 140q10 0 10 -9v-121q0 -10 -10 -10q-71 0 -111 49q-12 -124 -87.5 -194t-210.5 -70q-141 0 -216 66.5t-75 198.5q0 101 44 235l107 -29q-30 -95 -30 -168q1 -81 44.5 -122t126.5 -41q167 0 167 187v375l132 16v-252l1 -13q3 -49 32.5 -73.5t75.5 -24.5z" />
    <glyph glyph-name="uniFE82" unicode="&#x622;" horiz-adv-x="309" arabic-form="final" 
d="M88 770q22 0 63 -18.5t64 -18.5q45 0 79 25l-1 -82q-35 -24 -77 -24q-24 0 -62 18.5t-57 18.5q-43 0 -49 -39h-64q1 57 28.5 88.5t75.5 31.5zM309 0q-230 0 -230 208l-1 382l133 17v-355q0 -58 23.5 -85t73.5 -27q10 0 10 -9l1 -121q0 -10 -10 -10z" />
    <glyph glyph-name="uniFE84" unicode="&#x623;" horiz-adv-x="309" arabic-form="final" 
d="M273 732l-17 -76h-234v76h46q-12 24 -12 53q0 38 27 63.5t68 25.5q42 0 86 -19v-67q-38 15 -63 15q-19 0 -30.5 -9.5t-11.5 -24.5q0 -22 14 -37h127zM318 131l1 -121q0 -10 -10 -10q-230 0 -230 208l-1 382l133 17v-355q0 -58 23.5 -85t73.5 -27q10 0 10 -9z" />
    <glyph glyph-name="uniFE86" unicode="&#x624;" horiz-adv-x="554" arabic-form="final" 
d="M409 663l-27 -93h-239v93h54q-16 26 -16 57q0 48 32 77t82 29q35 0 78 -21v-83q-41 15 -68 15q-49 0 -49 -38q0 -18 15 -36h138zM554 140q10 0 10 -9v-121q0 -10 -10 -10h-52q-19 -215 -398 -215l-14 109q132 0 199 25t80 81h-97q-106 0 -170.5 67t-64.5 179
q0 109 68.5 180.5t171.5 71.5q99 0 162.5 -65.5t63.5 -175.5v-117h51zM156 250q0 -57 35.5 -87t93.5 -30q26 0 86 4v111q0 54 -28.5 85t-76.5 31q-46 0 -78 -31.5t-32 -82.5z" />
    <glyph glyph-name="uniFE88" unicode="&#x625;" horiz-adv-x="309" arabic-form="final" 
d="M318 131l1 -121q0 -10 -10 -10q-230 0 -230 208l-1 505l133 17v-478q0 -58 23.5 -85t73.5 -27q10 0 10 -9zM136 -149q0 -22 14 -37h126l-17 -76h-234v76h47q-12 24 -12 53q0 38 27 63.5t68 25.5q42 0 86 -19v-67q-37 15 -63 15q-19 0 -30.5 -9.5t-11.5 -24.5z" />
    <glyph glyph-name="uniFE8A" unicode="&#x626;" horiz-adv-x="1032" arabic-form="final" 
d="M281 457l-27 -93h-239v93h54q-16 26 -16 57q0 48 32 77t82 29q35 0 78 -21v-83q-41 15 -68 15q-49 0 -49 -38q0 -18 15 -36h138zM1032 140q10 0 10 -9v-121q0 -10 -10 -10h-247v348h-65q-98 0 -98 -108v-159q0 -147 -70 -221.5t-230 -74.5q-141 0 -216 66.5t-75 198.5
q0 101 44 235l107 -29q-30 -95 -30 -168q1 -81 44.5 -122t126.5 -41q90 0 128.5 39.5t38.5 134.5v172q0 100 53.5 158.5t153.5 58.5h141l80 -71v-277h114z" />
    <glyph glyph-name="uniFE8B" unicode="&#x626;" horiz-adv-x="365" arabic-form="initial" 
d="M238 657h138l-28 -93h-239v93h54q-16 26 -16 57q0 48 32 77t83 29q34 0 78 -21v-83q-41 15 -69 15q-22 0 -35 -10t-13 -28t15 -36zM180 249v238l132 16v-299q0 -204 -230 -204h-82q-10 0 -10 10l1 121q0 9 10 9h82q97 0 97 109z" />
    <glyph glyph-name="uniFE8C" unicode="&#x626;" horiz-adv-x="383" arabic-form="medial" 
d="M345 555l-27 -93h-239v93h54q-16 26 -16 57q0 48 32 77t82 29q35 0 78 -21v-83q-41 15 -68 15q-49 0 -49 -38q0 -18 15 -36h138zM383 140q10 0 10 -9v-121q0 -10 -10 -10q-86 0 -161 75q-63 -75 -222 -75q-10 0 -10 10l1 121q0 9 10 9q67 0 99 26t32 83v134l132 17v-196
q0 -18 -1 -27q55 -37 120 -37z" />
    <glyph glyph-name="uniFE8E" unicode="&#x627;" horiz-adv-x="309" arabic-form="final" 
d="M309 0q-230 0 -230 208l-1 505l133 17v-478q0 -58 23.5 -85t73.5 -27q10 0 10 -9l1 -121q0 -10 -10 -10z" />
    <glyph glyph-name="uniFE90" unicode="&#x628;" horiz-adv-x="866" arabic-form="final" 
d="M866 140q10 0 10 -9v-121q0 -10 -10 -10q-88 0 -155 65q-53 -61 -168 -65h-3h-259q-250 0 -250 232q0 80 28 208l114 -14q-18 -98 -18 -155q0 -67 38.5 -99t120.5 -32h212q98 0 98 109l-1 134l133 17v-196q0 -21 -1 -31q50 -33 111 -33zM322 -153l95 96l98 -96l-96 -95z
" />
    <glyph glyph-name="uniFE91" unicode="&#x628;" horiz-adv-x="284" arabic-form="initial" 
d="M0 0q-10 0 -10 10l1 121q0 9 10 9q98 0 98 109l-1 238l133 16v-299q0 -204 -231 -204zM117 -250l-97 95l95 96l98 -96z" />
    <glyph glyph-name="uniFE92" unicode="&#x628;" horiz-adv-x="341" arabic-form="medial" 
d="M341 140q10 0 10 -9v-121q0 -10 -10 -10q-88 0 -155 65q-57 -65 -186 -65q-10 0 -10 10l1 121q0 9 10 9q98 0 98 109l-1 134l133 17v-196q0 -11 -2 -31q52 -33 112 -33zM71 -155l95 96l98 -96l-96 -95z" />
    <glyph glyph-name="uniFE94" unicode="&#x629;" horiz-adv-x="581" arabic-form="final" 
d="M271 652l-79 -78l-97 95l95 95l81 -78l80 78l97 -95l-96 -95zM581 140q10 0 10 -9v-121q0 -10 -10 -10q-93 0 -142 39q-93 -48 -172 -48q-105 0 -172 71t-67 177q0 107 67.5 182.5t171.5 75.5q52 0 112 -21l-1 57l132 16l1 -331q0 -41 17 -59.5t53 -18.5zM267 123
q61 -1 116 22q-4 34 -4 56v144q-64 22 -106 22q-54 0 -88 -36t-34 -89q0 -51 32.5 -84.5t83.5 -34.5z" />
    <glyph glyph-name="uniFE96" unicode="&#x62a;" horiz-adv-x="866" arabic-form="final" 
d="M442 529l-79 -78l-97 95l95 95l81 -78l80 78l97 -95l-96 -95zM866 140q10 0 10 -9v-121q0 -10 -10 -10q-88 0 -155 65q-53 -61 -168 -65h-3h-259q-250 0 -250 232q0 80 28 208l114 -14q-18 -98 -18 -155q0 -67 38.5 -99t120.5 -32h212q98 0 98 109l-1 134l133 17v-196
q0 -21 -1 -31q50 -33 111 -33z" />
    <glyph glyph-name="uniFE97" unicode="&#x62a;" horiz-adv-x="391" arabic-form="initial" 
d="M320 757l96 -95l-95 -96l-81 80l-80 -80l-96 96l95 95l81 -79zM180 249v238l132 16v-299q0 -204 -230 -204h-82q-10 0 -10 10l1 121q0 9 10 9h82q97 0 97 109z" />
    <glyph glyph-name="uniFE98" unicode="&#x62a;" horiz-adv-x="383" arabic-form="medial" 
d="M193 535l-79 -78l-97 95l95 95l81 -78l80 78l97 -95l-96 -95zM383 140q10 0 10 -9v-121q0 -10 -10 -10q-86 0 -161 75q-63 -75 -222 -75q-10 0 -10 10l1 121q0 9 10 9q67 0 99 26t32 83v134l132 17v-196q0 -18 -1 -27q55 -37 120 -37z" />
    <glyph glyph-name="uniFE9A" unicode="&#x62b;" horiz-adv-x="866" arabic-form="final" 
d="M503 675l-64 -64l-64 64l63 64zM438 522l-79 -78l-97 95l95 95l81 -78l80 78l97 -95l-96 -95zM866 140q10 0 10 -9v-121q0 -10 -10 -10q-88 0 -155 65q-53 -61 -168 -65h-3h-259q-250 0 -250 232q0 80 28 208l114 -14q-18 -98 -18 -155q0 -67 38.5 -99t120.5 -32h212
q98 0 98 109l-1 134l133 17v-196q0 -21 -1 -31q50 -33 111 -33z" />
    <glyph glyph-name="uniFE9B" unicode="&#x62b;" horiz-adv-x="394" arabic-form="initial" 
d="M307 795l-64 -64l-64 64l63 64zM322 755l96 -95l-95 -96l-81 80l-80 -80l-96 96l95 95l81 -79zM180 249v238l132 16v-299q0 -204 -230 -204h-82q-10 0 -10 10l1 121q0 9 10 9h82q97 0 97 109z" />
    <glyph glyph-name="uniFE9C" unicode="&#x62b;" horiz-adv-x="383" arabic-form="medial" 
d="M260 688l-64 -64l-64 64l63 64zM195 535l-79 -78l-97 95l95 95l81 -78l80 78l97 -95l-96 -95zM383 140q10 0 10 -9v-121q0 -10 -10 -10q-86 0 -161 75q-63 -75 -222 -75q-10 0 -10 10l1 121q0 9 10 9q67 0 99 26t32 83v134l132 17v-196q0 -18 -1 -27q55 -37 120 -37z" />
    <glyph glyph-name="uniFE9E" unicode="&#x62c;" horiz-adv-x="652" arabic-form="final" 
d="M652 140q10 0 10 -9v-121q0 -10 -10 -10q-97 0 -143.5 41t-46.5 126v4q-145 -13 -225 -62.5t-80 -125.5q0 -58 45 -90.5t128 -32.5q75 0 200 35l37 -113q-149 -57 -265 -57q-123 0 -197.5 63.5t-74.5 176.5q0 256 409 304q-97 77 -151 105.5t-105 28.5q-25 0 -97 -14
l-25 117q79 32 138 32q68 0 148 -45.5t246 -177.5l-46 -140q-12 0 -18 -1q9 -21 34.5 -27.5t88.5 -6.5zM359 -75l-97 95l95 96l98 -96z" />
    <glyph glyph-name="uniFE9F" unicode="&#x62c;" horiz-adv-x="589" arabic-form="initial" 
d="M178 494q66 0 142 -40.5t249 -168.5l-26 -134q-152 -82 -273 -116.5t-269 -34.5q-11 0 -11 10v121q0 9 11 9q134 0 233 19t199 62q-111 82 -166 109.5t-106 27.5q-34 0 -96 -14l-25 118q82 32 138 32zM215 -142l95 96l98 -96l-96 -95z" />
    <glyph glyph-name="uniFEA0" unicode="&#x62c;" horiz-adv-x="633" arabic-form="medial" 
d="M633 140q10 0 10 -9v-121q0 -10 -10 -10h-27q-59 0 -99 27t-57 76q-116 -55 -220 -79t-229 -24q-11 0 -11 10v121q0 9 11 9q134 0 233 19t199 62q-111 82 -166 109.5t-106 27.5q-34 0 -96 -14l-25 118q82 32 138 32q66 0 142 -40.5t249 -168.5l-26 -134h-1q25 -11 65 -11
h26zM225 -142l95 96l98 -96l-96 -95z" />
    <glyph glyph-name="uniFEA2" unicode="&#x62d;" horiz-adv-x="652" arabic-form="final" 
d="M652 140q10 0 10 -9v-121q0 -10 -10 -10q-97 0 -143.5 41t-46.5 126v4q-145 -13 -225 -62.5t-80 -125.5q0 -58 45 -90.5t128 -32.5q75 0 200 35l37 -113q-149 -57 -265 -57q-123 0 -197.5 63.5t-74.5 176.5q0 256 409 304q-97 77 -151 105.5t-105 28.5q-25 0 -97 -14
l-25 117q79 32 138 32q68 0 148 -45.5t246 -177.5l-46 -140q-12 0 -18 -1q9 -21 34.5 -27.5t88.5 -6.5z" />
    <glyph glyph-name="uniFEA3" unicode="&#x62d;" horiz-adv-x="589" arabic-form="initial" 
d="M178 494q66 0 142 -40.5t249 -168.5l-26 -134q-152 -82 -273 -116.5t-269 -34.5q-11 0 -11 10v121q0 9 11 9q134 0 233 19t199 62q-111 82 -166 109.5t-106 27.5q-34 0 -96 -14l-25 118q82 32 138 32z" />
    <glyph glyph-name="uniFEA4" unicode="&#x62d;" horiz-adv-x="633" arabic-form="medial" 
d="M633 140q10 0 10 -9v-121q0 -10 -10 -10h-27q-59 0 -99 27t-57 76q-116 -55 -220 -79t-229 -24q-11 0 -11 10v121q0 9 11 9q134 0 233 19t199 62q-111 82 -166 109.5t-106 27.5q-34 0 -96 -14l-25 118q82 32 138 32q66 0 142 -40.5t249 -168.5l-26 -134h-1q25 -11 65 -11
h26z" />
    <glyph glyph-name="uniFEA6" unicode="&#x62e;" horiz-adv-x="652" arabic-form="final" 
d="M521 647l-96 -96l-97 96l95 95zM652 140q10 0 10 -9v-121q0 -10 -10 -10q-97 0 -143.5 41t-46.5 126v4q-145 -13 -225 -62.5t-80 -125.5q0 -58 45 -90.5t128 -32.5q75 0 200 35l37 -113q-149 -57 -265 -57q-123 0 -197.5 63.5t-74.5 176.5q0 256 409 304
q-97 77 -151 105.5t-105 28.5q-25 0 -97 -14l-25 117q79 32 138 32q68 0 148 -45.5t246 -177.5l-46 -140q-12 0 -18 -1q9 -21 34.5 -27.5t88.5 -6.5z" />
    <glyph glyph-name="uniFEA7" unicode="&#x62e;" horiz-adv-x="589" arabic-form="initial" 
d="M449 631l-96 -96l-97 96l95 95zM178 494q66 0 142 -40.5t249 -168.5l-26 -134q-152 -82 -273 -116.5t-269 -34.5q-11 0 -11 10v121q0 9 11 9q134 0 233 19t199 62q-111 82 -166 109.5t-106 27.5q-34 0 -96 -14l-25 118q82 32 138 32z" />
    <glyph glyph-name="uniFEA8" unicode="&#x62e;" horiz-adv-x="633" arabic-form="medial" 
d="M460 631l-96 -96l-97 96l95 95zM633 140q10 0 10 -9v-121q0 -10 -10 -10h-27q-59 0 -99 27t-57 76q-116 -55 -220 -79t-229 -24q-11 0 -11 10v121q0 9 11 9q134 0 233 19t199 62q-111 82 -166 109.5t-106 27.5q-34 0 -96 -14l-25 118q82 32 138 32q66 0 142 -40.5
t249 -168.5l-26 -134h-1q25 -11 65 -11h26z" />
    <glyph glyph-name="uniFEAA" unicode="&#x62f;" horiz-adv-x="595" arabic-form="final" 
d="M595 140q10 0 10 -9v-121q0 -10 -10 -10q-85 0 -152 62q-59 -62 -184 -62h-228l-21 140h250q48 0 73 24t25 65l-1 41q0 47 -34 76.5t-88 29.5h-66v136h95q102 0 164 -61t62 -167l1 -80q0 -12 -2 -34q47 -30 106 -30z" />
    <glyph glyph-name="uniFEAC" unicode="&#x630;" horiz-adv-x="595" arabic-form="final" 
d="M335 678l-96 -96l-97 96l95 95zM595 140q10 0 10 -9v-121q0 -10 -10 -10q-85 0 -152 62q-59 -62 -184 -62h-228l-21 140h250q48 0 73 24t25 65l-1 41q0 47 -34 76.5t-88 29.5h-66v136h95q102 0 164 -61t62 -167l1 -80q0 -12 -2 -34q47 -30 106 -30z" />
    <glyph glyph-name="uniFEAE" unicode="&#x631;" horiz-adv-x="372" arabic-form="final" 
d="M371 140q10 0 10 -9v-121q0 -10 -10 -10q-68 0 -107 44v-19q0 -127 -67 -183.5t-207 -56.5l-10 109q153 0 153 136l-1 457l132 16v-283q6 -41 35.5 -60.5t71.5 -19.5z" />
    <glyph glyph-name="uniFEB0" unicode="&#x632;" horiz-adv-x="372" arabic-form="final" 
d="M295 654l-96 -96l-97 96l95 95zM371 140q10 0 10 -9v-121q0 -10 -10 -10q-68 0 -107 44v-19q0 -127 -67 -183.5t-207 -56.5l-10 109q153 0 153 136l-1 457l132 16v-283q6 -41 35.5 -60.5t71.5 -19.5z" />
    <glyph glyph-name="uniFEB2" unicode="&#x633;" horiz-adv-x="1362" arabic-form="final" 
d="M1362 140q10 0 10 -9v-121q0 -10 -10 -10q-78 0 -141 52q-52 -52 -153 -52q-81 0 -166 55q-60 -55 -158 -55q-63 0 -125 40q-14 -121 -89 -188t-208 -67q-141 0 -216 66.5t-75 198.5q0 101 44 235l107 -29q-30 -95 -30 -168q1 -81 44.5 -122t126.5 -41q167 0 167 187v375
l132 16v-333q56 -30 109 -30q97 0 97 109l-1 134l133 17v-196q0 -22 -5 -49q45 -15 90 -15q97 0 97 109l-1 238l132 16v-299q0 -15 -2 -43q41 -21 91 -21z" />
    <glyph glyph-name="uniFEB3" unicode="&#x633;" horiz-adv-x="904" arabic-form="initial" 
d="M719 487l132 17v-299q0 -100 -52 -152t-153 -52q-83 0 -167 55q-58 -55 -157 -55q-74 0 -149 56q-60 -57 -173 -57q-10 0 -10 10v121q0 9 10 9q98 0 98 109l-1 134l132 17v-196q0 -27 -4 -46q41 -17 84 -17q97 0 97 109l-1 134l133 17v-196q0 -24 -5 -49q41 -15 90 -15
q97 0 97 109z" />
    <glyph glyph-name="uniFEB4" unicode="&#x633;" horiz-adv-x="945" arabic-form="medial" 
d="M945 140q10 0 10 -9v-121q0 -10 -10 -10q-81 0 -144 55q-51 -54 -155 -54q-83 0 -167 55q-58 -55 -157 -55q-74 0 -149 56q-60 -57 -173 -57q-10 0 -10 10v121q0 9 10 9q98 0 98 109l-1 134l132 17v-196q0 -27 -4 -46q41 -17 84 -17q97 0 97 109l-1 134l133 17v-196
q0 -24 -5 -49q41 -15 90 -15q97 0 97 109l-1 237l132 17v-299q0 -28 -2 -41q42 -24 96 -24z" />
    <glyph glyph-name="uniFEB6" unicode="&#x634;" horiz-adv-x="1362" arabic-form="final" 
d="M958 743l-64 -64l-64 64l63 64zM893 590l-79 -78l-97 95l95 95l81 -78l80 78l97 -95l-96 -95zM1362 140q10 0 10 -9v-121q0 -10 -10 -10q-78 0 -141 52q-52 -52 -153 -52q-81 0 -166 55q-60 -55 -158 -55q-63 0 -125 40q-14 -121 -89 -188t-208 -67q-141 0 -216 66.5
t-75 198.5q0 101 44 235l107 -29q-30 -95 -30 -168q1 -81 44.5 -122t126.5 -41q167 0 167 187v375l132 16v-333q56 -30 109 -30q97 0 97 109l-1 134l133 17v-196q0 -22 -5 -49q45 -15 90 -15q97 0 97 109l-1 238l132 16v-299q0 -15 -2 -43q41 -21 91 -21z" />
    <glyph glyph-name="uniFEB7" unicode="&#x634;" horiz-adv-x="904" arabic-form="initial" 
d="M535 744l-64 -64l-64 64l63 64zM470 591l-79 -78l-97 95l95 95l81 -78l80 78l97 -95l-96 -95zM719 487l132 17v-299q0 -100 -52 -152t-153 -52q-83 0 -167 55q-58 -55 -157 -55q-74 0 -149 56q-60 -57 -173 -57q-10 0 -10 10v121q0 9 10 9q98 0 98 109l-1 134l132 17
v-196q0 -27 -4 -46q41 -17 84 -17q97 0 97 109l-1 134l133 17v-196q0 -24 -5 -49q41 -15 90 -15q97 0 97 109z" />
    <glyph glyph-name="uniFEB8" unicode="&#x634;" horiz-adv-x="945" arabic-form="medial" 
d="M532 744l-64 -64l-64 64l63 64zM467 591l-79 -78l-97 95l95 95l81 -78l80 78l97 -95l-96 -95zM945 140q10 0 10 -9v-121q0 -10 -10 -10q-81 0 -144 55q-51 -54 -155 -54q-83 0 -167 55q-58 -55 -157 -55q-74 0 -149 56q-60 -57 -173 -57q-10 0 -10 10v121q0 9 10 9
q98 0 98 109l-1 134l132 17v-196q0 -27 -4 -46q41 -17 84 -17q97 0 97 109l-1 134l133 17v-196q0 -24 -5 -49q41 -15 90 -15q97 0 97 109l-1 237l132 17v-299q0 -28 -2 -41q42 -24 96 -24z" />
    <glyph glyph-name="uniFEBA" unicode="&#x635;" horiz-adv-x="1339" arabic-form="final" 
d="M1339 140q10 0 10 -9v-121q0 -10 -10 -10q-90 0 -157 67q-58 -67 -185 -67h-385q-22 -103 -95.5 -159t-194.5 -56q-141 0 -216 66.5t-75 198.5q0 101 44 235l107 -29q-30 -95 -30 -168q1 -81 44.5 -122t126.5 -41q167 0 167 187v375l132 16v-99q144 66 226 91.5t156 25.5
q100 0 163.5 -63.5t62.5 -164.5l-2 -89q0 -21 -2 -30q51 -34 113 -34zM1097 235v44q0 48 -34 77t-88 29q-43 0 -89 -10t-87 -23t-177 -58v-154h376q47 0 73 25t26 70z" />
    <glyph glyph-name="uniFEBB" unicode="&#x635;" horiz-adv-x="862" arabic-form="initial" 
d="M600 521q99 0 162.5 -63.5t63.5 -163.5q0 -63 -31 -179l-98 -115h-548h-149q-10 0 -10 10l1 121q0 9 10 9h85l-1 347l132 16v-99q145 66 226.5 91.5t156.5 25.5zM668 140q25 89 25 140q-1 47 -35 76t-88 29q-62 0 -122 -16t-231 -75v-154h451z" />
    <glyph glyph-name="uniFEBC" unicode="&#x635;" horiz-adv-x="937" arabic-form="medial" 
d="M937 140q10 0 10 -9v-121q0 -10 -10 -10q-92 0 -158 68q-60 -68 -187 -68h-443h-149q-10 0 -10 10v121q2 9 10 9h86l-1 347l132 16v-99q145 66 226.5 91.5t156.5 25.5q100 0 163 -63.5t62 -164.5l-1 -89q0 -9 -2 -29q52 -35 115 -35zM692 235v44q0 48 -34 77t-88 29
q-63 0 -123.5 -15.5t-229.5 -74.5v-155h376q47 0 73 25t26 70z" />
    <glyph glyph-name="uniFEBE" unicode="&#x636;" horiz-adv-x="1339" arabic-form="final" 
d="M870 681l-96 -96l-97 96l95 95zM1339 140q10 0 10 -9v-121q0 -10 -10 -10q-90 0 -157 67q-58 -67 -185 -67h-385q-22 -103 -95.5 -159t-194.5 -56q-141 0 -216 66.5t-75 198.5q0 101 44 235l107 -29q-30 -95 -30 -168q1 -81 44.5 -122t126.5 -41q167 0 167 187v375
l132 16v-99q144 66 226 91.5t156 25.5q100 0 163.5 -63.5t62.5 -164.5l-2 -89q0 -21 -2 -30q51 -34 113 -34zM1097 235v44q0 48 -34 77t-88 29q-43 0 -89 -10t-87 -23t-177 -58v-154h376q47 0 73 25t26 70z" />
    <glyph glyph-name="uniFEBF" unicode="&#x636;" horiz-adv-x="862" arabic-form="initial" 
d="M499 681l-96 -96l-97 96l95 95zM600 521q99 0 162.5 -63.5t63.5 -163.5q0 -63 -31 -179l-98 -115h-548h-149q-10 0 -10 10l1 121q0 9 10 9h85l-1 347l132 16v-99q145 66 226.5 91.5t156.5 25.5zM668 140q25 89 25 140q-1 47 -35 76t-88 29q-62 0 -122 -16t-231 -75v-154
h451z" />
    <glyph glyph-name="uniFEC0" unicode="&#x636;" horiz-adv-x="937" arabic-form="medial" 
d="M499 681l-96 -96l-97 96l95 95zM937 140q10 0 10 -9v-121q0 -10 -10 -10q-92 0 -158 68q-60 -68 -187 -68h-443h-149q-10 0 -10 10v121q2 9 10 9h86l-1 347l132 16v-99q145 66 226.5 91.5t156.5 25.5q100 0 163 -63.5t62 -164.5l-1 -89q0 -9 -2 -29q52 -35 115 -35z
M692 235v44q0 48 -34 77t-88 29q-63 0 -123.5 -15.5t-229.5 -74.5v-155h376q47 0 73 25t26 70z" />
    <glyph glyph-name="uniFEC2" unicode="&#x637;" horiz-adv-x="1000" arabic-form="final" 
d="M1000 140q10 0 10 -9v-121q0 -10 -10 -10q-92 0 -158 68q-60 -68 -187 -68h-443h-64h-113l-22 140h135v573l132 17v-326q145 66 226.5 91.5t156.5 25.5q100 0 163 -63.5t62 -164.5l-1 -89q0 -9 -2 -29q52 -35 115 -35zM755 235v44q0 48 -34 77t-88 29q-63 0 -124 -16
t-229 -75v-154h376q47 0 73 25t26 70z" />
    <glyph glyph-name="uniFEC3" unicode="&#x637;" horiz-adv-x="862" arabic-form="initial" 
d="M600 521q99 0 162.5 -63.5t63.5 -163.5q0 -63 -31 -179l-98 -115h-480h-132h-85q-10 0 -10 10l1 121q0 9 10 9h84v347v226l132 17v-227v-99q145 66 226.5 91.5t156.5 25.5zM668 140q25 89 25 140q-1 47 -35 76t-88 29q-62 0 -122 -16t-231 -75v-154h451z" />
    <glyph glyph-name="uniFEC4" unicode="&#x637;" horiz-adv-x="937" arabic-form="medial" 
d="M937 140q10 0 10 -9v-121q0 -10 -10 -10q-92 0 -158 68q-60 -68 -187 -68h-375h-132h-85q-10 0 -10 10v121q2 9 10 9h85v347v226l132 17v-227v-99q145 66 226.5 91.5t156.5 25.5q100 0 163 -63.5t62 -164.5l-1 -89q0 -9 -2 -29q52 -35 115 -35zM692 235v44q0 48 -34 77
t-88 29q-63 0 -123.5 -15.5t-229.5 -74.5v-155h376q47 0 73 25t26 70z" />
    <glyph glyph-name="uniFEC6" unicode="&#x638;" horiz-adv-x="1000" arabic-form="final" 
d="M585 681l-96 -96l-97 96l95 95zM1000 140q10 0 10 -9v-121q0 -10 -10 -10q-92 0 -158 68q-60 -68 -187 -68h-443h-64h-113l-22 140h135v573l132 17v-326q145 66 226.5 91.5t156.5 25.5q100 0 163 -63.5t62 -164.5l-1 -89q0 -9 -2 -29q52 -35 115 -35zM755 235v44
q0 48 -34 77t-88 29q-63 0 -124 -16t-229 -75v-154h376q47 0 73 25t26 70z" />
    <glyph glyph-name="uniFEC7" unicode="&#x638;" horiz-adv-x="862" arabic-form="initial" 
d="M511 681l-96 -96l-97 96l95 95zM600 521q99 0 162.5 -63.5t63.5 -163.5q0 -63 -31 -179l-98 -115h-480h-132h-85q-10 0 -10 10l1 121q0 9 10 9h84v347v226l132 17v-227v-99q145 66 226.5 91.5t156.5 25.5zM668 140q25 89 25 140q-1 47 -35 76t-88 29q-62 0 -122 -16
t-231 -75v-154h451z" />
    <glyph glyph-name="uniFEC8" unicode="&#x638;" horiz-adv-x="937" arabic-form="medial" 
d="M511 681l-96 -96l-97 96l95 95zM937 140q10 0 10 -9v-121q0 -10 -10 -10q-92 0 -158 68q-60 -68 -187 -68h-375h-132h-85q-10 0 -10 10v121q2 9 10 9h85v347v226l132 17v-227v-99q145 66 226.5 91.5t156.5 25.5q100 0 163 -63.5t62 -164.5l-1 -89q0 -9 -2 -29
q52 -35 115 -35zM692 235v44q0 48 -34 77t-88 29q-63 0 -123.5 -15.5t-229.5 -74.5v-155h376q47 0 73 25t26 70z" />
    <glyph glyph-name="uniFECA" unicode="&#x639;" horiz-adv-x="604" arabic-form="final" 
d="M604 140q10 0 10 -9v-121q0 -10 -10 -10q-163 0 -289 84q-30 -17 -43 -24t-36 -21t-32.5 -22t-21.5 -20t-16.5 -23.5t-4.5 -23.5q0 -43 46.5 -67t127.5 -24q99 0 211 34l36 -113q-142 -55 -261 -55q-131 0 -207 55.5t-76 152.5q0 60 41 104t119 87q-94 109 -163 243
l46 110q139 68 248 68q103 0 169.5 -53t66.5 -137q0 -103 -123 -194q79 -21 162 -21zM311 415q-64 1 -148 -34q63 -125 136 -203q70 38 104.5 69.5t34.5 63.5q0 46 -34.5 75t-92.5 29z" />
    <glyph glyph-name="uniFECB" unicode="&#x639;" horiz-adv-x="547" arabic-form="initial" 
d="M199 144q158 8 329 38l-28 -140q-225 -42 -500 -42q-10 0 -10 10v121q0 9 10 9q54 0 79 1q-39 74 -39 149q0 91 65.5 150t166.5 59q70 0 192 -42l-37 -112q-91 24 -134 24q-58 0 -93.5 -30.5t-35.5 -79.5q0 -57 35 -115z" />
    <glyph glyph-name="uniFECC" unicode="&#x639;" horiz-adv-x="599" arabic-form="medial" 
d="M595 140q10 0 10 -9v-121q0 -10 -10 -10q-160 0 -270 60q-73 -34 -143.5 -47t-181.5 -13q-10 1 -10 10v121q0 9 10 9q86 0 157 9q-71 88 -131 205l46 110q139 68 248 68q103 0 169.5 -53t66.5 -137q0 -108 -98 -193q57 -9 137 -9zM302 402q-64 1 -147 -34
q62 -125 141 -210q62 26 97.5 64.5t35.5 75.5q0 45 -34.5 74t-92.5 30z" />
    <glyph glyph-name="uniFECE" unicode="&#x63a;" horiz-adv-x="604" arabic-form="final" 
d="M400 711l-96 -96l-97 96l95 95zM604 140q10 0 10 -9v-121q0 -10 -10 -10q-163 0 -289 84q-30 -17 -43 -24t-36 -21t-32.5 -22t-21.5 -20t-16.5 -23.5t-4.5 -23.5q0 -43 46.5 -67t127.5 -24q99 0 211 34l36 -113q-142 -55 -261 -55q-131 0 -207 55.5t-76 152.5
q0 60 41 104t119 87q-94 109 -163 243l46 110q139 68 248 68q103 0 169.5 -53t66.5 -137q0 -103 -123 -194q79 -21 162 -21zM311 415q-64 1 -148 -34q63 -125 136 -203q70 38 104.5 69.5t34.5 63.5q0 46 -34.5 75t-92.5 29z" />
    <glyph glyph-name="uniFECF" unicode="&#x63a;" horiz-adv-x="547" arabic-form="initial" 
d="M350 663l-96 -96l-97 96l95 95zM199 144q158 8 329 38l-28 -140q-225 -42 -500 -42q-10 0 -10 10v121q0 9 10 9q54 0 79 1q-39 74 -39 149q0 91 65.5 150t166.5 59q70 0 192 -42l-37 -112q-91 24 -134 24q-58 0 -93.5 -30.5t-35.5 -79.5q0 -57 35 -115z" />
    <glyph glyph-name="uniFED0" unicode="&#x63a;" horiz-adv-x="599" arabic-form="medial" 
d="M394 698l-96 -96l-97 96l95 95zM595 140q10 0 10 -9v-121q0 -10 -10 -10q-160 0 -270 60q-73 -34 -143.5 -47t-181.5 -13q-10 1 -10 10v121q0 9 10 9q86 0 157 9q-71 88 -131 205l46 110q139 68 248 68q103 0 169.5 -53t66.5 -137q0 -108 -98 -193q57 -9 137 -9zM302 402
q-64 1 -147 -34q62 -125 141 -210q62 26 97.5 64.5t35.5 75.5q0 45 -34.5 74t-92.5 30z" />
    <glyph glyph-name="uniFED2" unicode="&#x641;" horiz-adv-x="962" arabic-form="final" 
d="M775 670l-96 -96l-97 96l95 95zM965 140q10 0 10 -9v-121q0 -10 -10 -10q-132 0 -267 45q-117 -43 -281 -45h-1h-137q-248 0 -248 223q0 71 20 165l114 -14q-12 -81 -12 -111q0 -63 38.5 -93t119.5 -30h96q65 0 113 4q-58 63 -58 146q0 92 64 153.5t163 61.5t163 -63
t64 -152q0 -80 -59 -144q49 -6 108 -6zM683 377q-45 0 -73 -29t-28 -74q0 -40 27.5 -73.5t74.5 -49.5q48 19 76.5 52.5t28.5 70.5q0 45 -31.5 74t-74.5 29z" />
    <glyph glyph-name="uniFED3" unicode="&#x641;" horiz-adv-x="548" arabic-form="initial" 
d="M358 670l-96 -96l-97 96l95 95zM272 505q103 0 171.5 -67.5t68.5 -169.5q0 -123 -76.5 -195.5t-208.5 -72.5h-227q-10 0 -10 10v121q0 9 10 9h68q-34 71 -34 128q0 105 67 171t171 66zM230 140q69 0 109 34t40 93q0 48 -31.5 79.5t-78.5 31.5t-80 -34t-33 -81
q0 -57 36 -123h38z" />
    <glyph glyph-name="uniFED4" unicode="&#x641;" horiz-adv-x="558" arabic-form="medial" 
d="M368 670l-96 -96l-97 96l95 95zM558 140q10 0 10 -9v-121q0 -10 -10 -10q-127 0 -268 45q-121 -45 -290 -45q-10 1 -10 10v121q0 9 10 9q65 0 113 4q-58 64 -58 146q0 92 64 153.5t163 61.5t163 -63t64 -152q0 -78 -59 -144q50 -6 108 -6zM276 377q-45 0 -73 -29t-28 -74
q0 -39 27.5 -73t74.5 -50q48 19 76.5 52.5t28.5 70.5q0 45 -31.5 74t-74.5 29z" />
    <glyph glyph-name="uniFED6" unicode="&#x642;" horiz-adv-x="793" arabic-form="final" 
d="M510 653l-79 -78l-97 95l95 95l81 -78l80 78l97 -95l-96 -95zM793 140q10 0 10 -9v-121q0 -10 -10 -10h-58q-37 -215 -374 -215q-154 0 -242 69t-88 196q0 101 44 235l107 -29q-30 -95 -30 -168q1 -92 59.5 -139.5t169.5 -47.5q188 0 224 99h-97q-105 0 -169 66t-64 176
t68 182t170 71q100 -1 163 -66.5t63 -174.5v-114h54zM395 246q0 -55 34.5 -84t91.5 -29q25 0 87 4l-1 107q0 54 -28 85t-76 32q-47 1 -77.5 -31t-30.5 -84z" />
    <glyph glyph-name="uniFED7" unicode="&#x642;" horiz-adv-x="548" arabic-form="initial" 
d="M265 653l-79 -78l-97 95l95 95l81 -78l80 78l97 -95l-96 -95zM272 505q103 0 171.5 -67.5t68.5 -169.5q0 -123 -76.5 -195.5t-208.5 -72.5h-227q-10 0 -10 10v121q0 9 10 9h68q-34 71 -34 128q0 105 67 171t171 66zM230 140q69 0 109 34t40 93q0 48 -31.5 79.5
t-78.5 31.5t-80 -34t-33 -81q0 -57 36 -123h38z" />
    <glyph glyph-name="uniFED8" unicode="&#x642;" horiz-adv-x="558" arabic-form="medial" 
d="M272 653l-79 -78l-97 95l95 95l81 -78l80 78l97 -95l-96 -95zM558 140q10 0 10 -9v-121q0 -10 -10 -10q-127 0 -268 45q-121 -45 -290 -45q-10 1 -10 10v121q0 9 10 9q65 0 113 4q-58 64 -58 146q0 92 64 153.5t163 61.5t163 -63t64 -152q0 -78 -59 -144q50 -6 108 -6z
M276 377q-45 0 -73 -29t-28 -74q0 -39 27.5 -73t74.5 -50q48 19 76.5 52.5t28.5 70.5q0 45 -31.5 74t-74.5 29z" />
    <glyph glyph-name="uniFEDA" unicode="&#x643;" horiz-adv-x="881" arabic-form="final" 
d="M890 131l1 -121q0 -10 -10 -10q-139 0 -194 76q-116 -76 -270 -76h-138q-248 0 -248 223q0 73 21 165l114 -14q-13 -78 -13 -111q0 -63 39 -93t119 -30h105q152 0 236 41q-1 9 -1 27l-1 505l133 17v-478q0 -58 23.5 -85t73.5 -27q10 0 10 -9zM554 443l-27 -92h-239v92h54
q-16 26 -16 57q0 48 32 77t82 29q34 0 78 -21v-83q-41 15 -68 15q-23 0 -36 -10t-13 -27q0 -19 15 -37h138z" />
    <glyph glyph-name="uniFEDB" unicode="&#x643;" horiz-adv-x="584" arabic-form="initial" 
d="M304 439q113 0 180.5 -57.5t67.5 -153.5q0 -107 -63 -167.5t-174 -60.5h-315q-10 0 -10 10v121q0 9 10 9h312q50 0 79 24t29 65t-29 65.5t-78 24.5h-230l-69 121l288 351l123 -67l-268 -285h147z" />
    <glyph glyph-name="uniFEDC" unicode="&#x643;" horiz-adv-x="648" arabic-form="medial" 
d="M648 140q10 0 10 -9v-121q0 -10 -10 -10q-87 0 -155 65q-63 -65 -178 -65h-315q-10 0 -10 10v121q0 9 10 9h312q50 0 79 24t29 65t-29 65.5t-78 24.5h-230l-69 121l288 351l123 -67l-268 -285h147q113 0 180.5 -57.5t67.5 -153.5q0 -32 -6 -61q45 -27 102 -27z" />
    <glyph glyph-name="uniFEDE" unicode="&#x644;" horiz-adv-x="736" arabic-form="final" 
d="M736 140q10 0 10 -9v-121q0 -10 -10 -10q-74 0 -116 49q-12 -124 -87.5 -194t-210.5 -70q-141 0 -216 66.5t-75 198.5q0 101 44 235l107 -29q-30 -95 -30 -168q1 -81 44.5 -122t126.5 -41q167 0 167 187v375v233l133 17v-509q4 -41 36 -64.5t77 -23.5z" />
    <glyph glyph-name="uniFEDF" unicode="&#x644;" horiz-adv-x="309" arabic-form="initial" 
d="M0 0q-10 0 -10 10v121q0 9 11 9q50 0 73.5 27t23.5 85l1 461l132 17v-522q0 -208 -231 -208z" />
    <glyph glyph-name="uniFEE0" unicode="&#x644;" horiz-adv-x="328" arabic-form="medial" 
d="M337 131l1 -121q0 -10 -10 -10q-128 0 -185 64q-68 -64 -143 -64q-10 0 -10 10v121q0 9 10 9q58 0 100 31q-2 24 -2 37l-1 505l132 17l1 -478q0 -58 23.5 -85t73.5 -27q10 0 10 -9z" />
    <glyph glyph-name="uniFEE2" unicode="&#x645;" horiz-adv-x="703" arabic-form="final" 
d="M702 140q10 0 10 -9v-121q0 -10 -10 -10h-236q-93 0 -159 40.5t-95 114.5q-51 -15 -51 -87v-321l-132 -17l-1 344q0 198 165 221q10 93 76 151.5t163 58.5q96 0 162.5 -66t66.5 -159q0 -64 -25 -140h66zM463 140h62q21 69 21 121q0 47 -32.5 82t-78.5 35q-49 0 -80 -31
t-31 -81q0 -57 37.5 -91.5t101.5 -34.5z" />
    <glyph glyph-name="uniFEE3" unicode="&#x645;" horiz-adv-x="548" arabic-form="initial" 
d="M272 505q103 0 171.5 -67.5t68.5 -169.5q0 -123 -76.5 -195.5t-208.5 -72.5h-227q-10 0 -10 10v121q0 9 10 9h68q-34 71 -34 128q0 105 67 171t171 66zM230 140q69 0 109 34t40 93q0 48 -31.5 79.5t-78.5 31.5t-80 -34t-33 -81q0 -57 36 -123h38z" />
    <glyph glyph-name="uniFEE4" unicode="&#x645;" horiz-adv-x="571" arabic-form="medial" 
d="M571 140q10 0 10 -9v-121q0 -10 -10 -10h-237q-103 0 -173 49q-81 -49 -161 -49q-10 0 -10 10v121q0 9 10 9q43 0 79 14q-20 51 -20 112q0 104 68 171.5t173 67.5q97 0 165 -66t68 -159q0 -65 -25 -140h63zM331 140h60q20 70 20 121q0 47 -31 82t-77 35q-49 0 -80 -31
t-31 -81q0 -57 37.5 -91.5t101.5 -34.5z" />
    <glyph glyph-name="uniFEE6" unicode="&#x646;" horiz-adv-x="731" arabic-form="final" 
d="M406 495l-96 -96l-97 96l95 95zM731 140q10 0 10 -9v-121q0 -10 -10 -10q-71 0 -111 49q-12 -124 -87.5 -194t-210.5 -70q-141 0 -216 66.5t-75 198.5q0 101 44 235l107 -29q-30 -95 -30 -168q1 -81 44.5 -122t126.5 -41q167 0 167 187v375l132 16v-252l1 -13
q3 -49 32.5 -73.5t75.5 -24.5z" />
    <glyph glyph-name="uniFEE7" unicode="&#x646;" horiz-adv-x="284" arabic-form="initial" 
d="M161 577l-97 96l95 95l98 -95zM0 0q-10 0 -10 10l1 121q0 9 10 9q98 0 98 109l-1 238l133 16v-299q0 -204 -231 -204z" />
    <glyph glyph-name="uniFEE8" unicode="&#x646;" horiz-adv-x="341" arabic-form="medial" 
d="M262 557l-96 -96l-97 96l95 95zM341 140q10 0 10 -9v-121q0 -10 -10 -10q-88 0 -155 65q-57 -65 -186 -65q-10 0 -10 10l1 121q0 9 10 9q98 0 98 109l-1 134l133 17v-196q0 -11 -2 -31q52 -33 112 -33z" />
    <glyph glyph-name="uniFEE9" unicode="&#x647;" horiz-adv-x="820" arabic-form="isolated" 
d="M307 699q231 0 353.5 -100t122.5 -283q0 -106 -44 -210l-120 -119q-127 -2 -272 64q-106 -51 -188 -51q-74 0 -144 23l26 134q59 -17 108 -17h11q-63 66 -63 152q0 91 64 152.5t163 61.5t163 -63t64 -151q0 -83 -66 -151q66 -15 130 -15q42 94 42 183q0 50 -20 96
t-61 86.5t-113 64.5t-167 24zM318 379q-45 0 -73 -29.5t-28 -74.5q0 -39 27.5 -73t74.5 -50q48 19 76.5 52.5t28.5 70.5q0 45 -31.5 74.5t-74.5 29.5z" />
    <glyph glyph-name="uniFEEA" unicode="&#x647;" horiz-adv-x="581" arabic-form="final" 
d="M581 140q10 0 10 -9v-121q0 -10 -10 -10q-93 0 -142 39q-93 -48 -172 -48q-105 0 -172 71t-67 177q0 107 67.5 182.5t171.5 75.5q52 0 112 -21l-1 57l132 16l1 -331q0 -41 17 -59.5t53 -18.5zM267 123q61 -1 116 22q-4 34 -4 56v144q-64 22 -106 22q-54 0 -88 -36
t-34 -89q0 -51 32.5 -84.5t83.5 -34.5z" />
    <glyph glyph-name="uniFEEB" unicode="&#x647;" horiz-adv-x="805" arabic-form="initial" 
d="M288 699q231 0 355.5 -100.5t124.5 -282.5q0 -86 -31 -201l-97 -115h-304q-101 0 -171 48q-80 -48 -165 -48q-10 0 -10 10v121q0 9 10 9q47 0 82 13q-21 49 -21 113q0 104 68 171.5t173 67.5q97 0 165 -66t68 -159q0 -65 -25 -140h107q25 90 25 169q0 50 -21 96
t-62.5 86.5t-114.5 64.5t-168 24zM333 140h60q20 70 20 121q0 47 -31 82t-77 35q-49 0 -80 -31t-31 -81q0 -57 37.5 -91.5t101.5 -34.5z" />
    <glyph glyph-name="uniFEEC" unicode="&#x647;" horiz-adv-x="545" arabic-form="medial" 
d="M553 140q10 0 10 -9v-121q0 -10 -10 -10h-28q-1 -105 -65 -162.5t-176 -57.5q-94 0 -158.5 57.5t-86.5 163.5q-15 -1 -46 -1q-10 0 -10 10v121q0 9 10 9h37q8 118 66.5 236.5t157.5 212.5h115q64 -74 102 -158t38 -149q0 -81 -55 -142h99zM295 482q-64 -77 -101.5 -168
t-43.5 -169q119 9 173 40.5t54 93.5q0 93 -82 203zM288 -92q58 0 90 25t34 67h-94l-16 47q-61 -23 -140 -34q30 -105 126 -105z" />
    <glyph glyph-name="uniFEEE" unicode="&#x648;" horiz-adv-x="554" arabic-form="final" 
d="M554 140q10 0 10 -9v-121q0 -10 -10 -10h-52q-19 -215 -398 -215l-14 109q132 0 199 25t80 81h-97q-106 0 -170.5 67t-64.5 179q0 109 68.5 180.5t171.5 71.5q99 0 162.5 -65.5t63.5 -175.5v-117h51zM156 250q0 -57 35.5 -87t93.5 -30q26 0 86 4v111q0 54 -28.5 85
t-76.5 31q-46 0 -78 -31.5t-32 -82.5z" />
    <glyph glyph-name="uniFEF0" unicode="&#x649;" horiz-adv-x="1032" arabic-form="final" 
d="M1032 140q10 0 10 -9v-121q0 -10 -10 -10h-247v348h-65q-98 0 -98 -108v-159q0 -147 -70 -221.5t-230 -74.5q-141 0 -216 66.5t-75 198.5q0 101 44 235l107 -29q-30 -95 -30 -168q1 -81 44.5 -122t126.5 -41q90 0 128.5 39.5t38.5 134.5v172q0 100 53.5 158.5t153.5 58.5
h141l80 -71v-277h114z" />
    <glyph glyph-name="uniFEF2" unicode="&#x64a;" horiz-adv-x="1032" arabic-form="final" 
d="M1032 140q10 0 10 -9v-121q0 -10 -10 -10h-247v348h-65q-98 0 -98 -108v-159q0 -147 -70 -221.5t-230 -74.5q-141 0 -216 66.5t-75 198.5q0 101 44 235l107 -29q-30 -95 -30 -168q1 -81 44.5 -122t126.5 -41q90 0 128.5 39.5t38.5 134.5v172q0 100 53.5 158.5t153.5 58.5
h141l80 -71v-277h114zM399 -335l77 75l97 -95l-96 -96l-78 76l-76 -76l-97 96l96 95z" />
    <glyph glyph-name="uniFEF3" unicode="&#x64a;" horiz-adv-x="365" arabic-form="initial" 
d="M0 0q-10 0 -10 10l1 121q0 9 10 9h82q97 0 97 109v238l132 16v-299q0 -204 -230 -204h-82zM329 -153l-96 -96l-78 76l-76 -76l-97 96l96 95l77 -75l77 75z" />
    <glyph glyph-name="uniFEF4" unicode="&#x64a;" horiz-adv-x="383" arabic-form="medial" 
d="M383 140q10 0 10 -9v-121q0 -10 -10 -10q-86 0 -161 75q-63 -75 -222 -75q-10 0 -10 10l1 121q0 9 10 9q67 0 99 26t32 83v134l132 17v-196q0 -18 -1 -27q55 -37 120 -37zM191 -133l77 75l97 -95l-96 -96l-78 76l-76 -76l-97 96l96 95z" />
    <glyph glyph-name=".notdef" horiz-adv-x="284" 
 />
    <glyph glyph-name=".null" 
 />
    <glyph glyph-name="nonmarkingreturn" horiz-adv-x="333" 
 />
    <glyph glyph-name="space" unicode=" " horiz-adv-x="220" 
 />
    <glyph glyph-name="exclam" unicode="!" horiz-adv-x="284" 
d="M186 180h-89l-29 191v309h147v-309zM202 0h-120v117h120v-117z" />
    <glyph glyph-name="quotedbl" unicode="&#x22;" horiz-adv-x="395" 
d="M145 433h-69l-22 123v124h113v-124zM320 433h-70l-22 123v124h114v-124z" />
    <glyph glyph-name="numbersign" unicode="#" horiz-adv-x="731" 
d="M597 486h87v-106h-136l-56 -115h152v-106h-200l-79 -159h-115l79 159h-100l-79 -159h-115l79 159h-72v106h120l56 115h-123v106h172l94 194h115l-95 -194h101l94 194h115zM434 380h-101l-56 -115h101z" />
    <glyph glyph-name="dollar" unicode="$" horiz-adv-x="596" 
d="M543 507q-49 32 -112.5 48t-118.5 16q-54 0 -84.5 -14t-30.5 -54q0 -31 37.5 -52t90.5 -36.5t106 -37t90.5 -66.5t37.5 -112q0 -94 -60 -145t-153 -61v-118h-89v115q-117 7 -214 53v130q102 -64 234 -64t132 76q0 28 -27 48.5t-67 32.5t-87.5 30t-87.5 39t-67 62.5
t-27 98.5q0 90 59 137.5t152 55.5v116h89v-116q103 -7 197 -52v-130z" />
    <glyph glyph-name="percent" unicode="%" horiz-adv-x="824" 
d="M195 322q-79 0 -120 52t-41 132t41 132t120 52t120.5 -52t41.5 -132t-41.5 -132t-120.5 -52zM469 370h-78l154 310h111zM195 625q-41 0 -61 -32t-20 -87t20 -87t61 -32q81 0 81 119t-81 119zM629 -8q-79 0 -120.5 52t-41.5 132t41.5 132t120.5 52t120 -52t41 -132
t-41 -132t-120 -52zM351 310h78l-153 -310h-111zM629 295q-41 0 -61 -32t-20 -87t20 -87t61 -32q81 0 81 119t-81 119z" />
    <glyph glyph-name="ampersand" unicode="&#x26;" horiz-adv-x="683" 
d="M653 -7l-124 94q-82 -97 -238 -97q-113 0 -181.5 51t-68.5 143q0 126 125 183q-65 65 -65 137q0 50 21 87.5t56 58t74 30.5t80 10q112 0 201 -56v-113q-98 61 -181 61q-43 0 -75 -17.5t-32 -55.5q0 -24 14.5 -46t30 -35t53.5 -41q11 -8 16 -12l107 -85q14 38 14 97h133
q0 -105 -25 -179l65 -51v-164zM289 266q-45 35 -47 36q-54 -40 -54 -98q0 -41 29.5 -69.5t79.5 -28.5q75 0 122 58z" />
    <glyph glyph-name="quotesingle" unicode="'" horiz-adv-x="221" 
d="M145 433h-69l-22 123v124h113v-124z" />
    <glyph glyph-name="parenleft" unicode="(" horiz-adv-x="321" 
d="M316 830q-60 -77 -111 -213.5t-51 -276.5t51 -276.5t111 -213.5h-90q-29 29 -59.5 73.5t-61.5 107t-50.5 144.5t-19.5 165t19.5 165t50.5 144.5t61.5 107t59.5 73.5h90z" />
    <glyph glyph-name="parenright" unicode=")" horiz-adv-x="321" 
d="M4 -150q60 77 111 213.5t51 276.5t-51 276.5t-111 213.5h90q41 -40 81.5 -104t75.5 -170.5t35 -215.5t-35 -215.5t-75.5 -170.5t-81.5 -104h-90z" />
    <glyph glyph-name="asterisk" unicode="*" horiz-adv-x="381" 
d="M256 530l80 -46l-32 -57l-81 46v-93h-65v93l-82 -46l-32 57l80 46l-80 47l32 57l82 -47v93h65v-93l81 47l32 -57z" />
    <glyph glyph-name="plus" unicode="+" horiz-adv-x="569" 
d="M530 270h-192v-193h-106v193h-193v106h192v192h106v-192h193v-106z" />
    <glyph glyph-name="comma" unicode="," horiz-adv-x="218" 
d="M85 -130l-77 5q43 113 45 244h115q-10 -136 -83 -249z" />
    <glyph glyph-name="hyphen" unicode="-" horiz-adv-x="464" 
d="M57 240v106h350v-106h-350z" />
    <glyph glyph-name="period" unicode="." horiz-adv-x="222" 
d="M171 0h-120v119h120v-119z" />
    <glyph glyph-name="slash" unicode="/" horiz-adv-x="489" 
d="M139 0h-115l326 680h115z" />
    <glyph glyph-name="zero" unicode="0" horiz-adv-x="707" 
d="M353 -10q-150 0 -228 98.5t-78 251.5q0 99 32 176.5t102.5 125.5t171.5 48t171.5 -48t103 -125.5t32.5 -176.5q0 -153 -78.5 -251.5t-228.5 -98.5zM353 577q-157 0 -157 -237t157 -237t157 237t-157 237z" />
    <glyph glyph-name="one" unicode="1" horiz-adv-x="500" 
d="M467 119l16 -119h-440v119h147v425l-121 -62l-39 111l180 92h127v-566h130z" />
    <glyph glyph-name="two" unicode="2" horiz-adv-x="607" 
d="M62 624q121 66 230 66q112 0 185 -50.5t73 -151.5q0 -50 -25.5 -93.5t-63.5 -72t-82 -56.5t-82 -49t-63.5 -46.5t-25.5 -51.5h337l16 -119h-516v71q0 60 26.5 108.5t65.5 77.5t85.5 57t85.5 49.5t65.5 52t26.5 65.5q0 50 -34.5 73t-90.5 23q-80 0 -195 -68z" />
    <glyph glyph-name="three" unicode="3" horiz-adv-x="587" 
d="M402 350q143 -40 143 -164q0 -93 -70 -144.5t-197 -51.5q-154 0 -258 54l38 103q113 -45 197 -45q143 0 143 99q0 96 -154 96h-60v105h60q144 1 144 91q0 89 -121 89q-45 0 -83 -10t-101 -36l-38 103q116 55 244 55q110 0 173 -48.5t63 -138.5q0 -115 -123 -157z" />
    <glyph glyph-name="four" unicode="4" horiz-adv-x="653" 
d="M627 130h-95v-130h-146v130h-353v111l350 439h149v-439h95v-111zM386 241v265l-205 -265h205z" />
    <glyph glyph-name="five" unicode="5" horiz-adv-x="600" 
d="M95 680l-19 -380q111 24 185 24q75 0 113 -28t38 -79q0 -55 -38 -85t-109 -30q-81 0 -194 45l-38 -103q104 -54 255 -54q128 0 200.5 61t72.5 169q0 97 -64 152.5t-174 55.5q-57 0 -115 -12l8 146h291l17 118h-429z" />
    <glyph glyph-name="six" unicode="6" horiz-adv-x="660" 
d="M532 542q-74 37 -151 37q-184 0 -184 -239q35 46 89.5 69.5t108.5 23.5q101 0 160 -58t59 -148q0 -103 -69.5 -170t-196.5 -67q-147 0 -224 93t-77 244q0 68 18 130.5t54.5 115.5t100 85t145.5 32q112 0 207 -44zM203 254q5 -63 40.5 -107.5t99.5 -44.5q52 0 86 33.5
t34 86.5q0 51 -33 82t-84 31q-44 0 -83.5 -23t-59.5 -58z" />
    <glyph glyph-name="seven" unicode="7" horiz-adv-x="550" 
d="M104 0l276 562h-353l16 118h487v-103l-283 -577h-143z" />
    <glyph glyph-name="eight" unicode="8" horiz-adv-x="649" 
d="M476 356q61 -26 96 -65t35 -104q0 -93 -80 -145t-205 -52q-122 0 -201 46t-79 138q0 51 33 95.5t90 70.5q-88 53 -88 160q0 91 70.5 140.5t180.5 49.5q103 0 173.5 -48t70.5 -135q0 -96 -96 -151zM325 585q-54 0 -84.5 -23t-30.5 -60q0 -24 12.5 -42t42.5 -32t50.5 -21
t66.5 -20q56 49 56 113q0 37 -29 61t-84 24zM323 95q59 0 96.5 25.5t37.5 69.5q0 14 -5 25t-16.5 20t-23 15.5t-31.5 13.5t-35 11t-40 11t-40 11q-74 -43 -74 -105q0 -43 34.5 -70t96.5 -27z" />
    <glyph glyph-name="nine" unicode="9" horiz-adv-x="660" 
d="M128 139q71 -37 151 -37q184 0 184 238q-35 -46 -89 -69.5t-109 -23.5q-100 0 -159 58t-59 148q0 103 69.5 170t195.5 67q148 0 225 -92.5t77 -244.5q0 -68 -18 -130.5t-55 -115.5t-100.5 -85t-145.5 -32q-113 0 -206 45zM457 426q-6 63 -41.5 108t-98.5 45
q-52 0 -86.5 -34t-34.5 -86t33 -83t85 -31q44 0 83.5 23t59.5 58z" />
    <glyph glyph-name="colon" unicode=":" horiz-adv-x="231" 
d="M172 307h-113v117h113v-117zM172 67h-113v117h113v-117z" />
    <glyph glyph-name="semicolon" unicode=";" horiz-adv-x="262" 
d="M192 307h-113v117h113v-117zM192 117v-110q0 -89 -28 -120t-124 -31v79q23 0 31 12t8 60v110h113z" />
    <glyph glyph-name="less" unicode="&#x3c;" horiz-adv-x="563" 
d="M507 139l-451 109v150l451 108v-106l-333 -78l333 -77v-106z" />
    <glyph glyph-name="equal" unicode="=" horiz-adv-x="575" 
d="M62 380v106h450v-106h-450zM62 159v106h450v-106h-450z" />
    <glyph glyph-name="greater" unicode="&#x3e;" horiz-adv-x="563" 
d="M56 139v106l333 77l-333 78v106l451 -108v-150z" />
    <glyph glyph-name="question" unicode="?" horiz-adv-x="524" 
d="M150 360q190 0 190 109q0 50 -32 76t-87 26q-98 0 -184 -60v129q88 50 214 50q106 0 172.5 -53.5t66.5 -154.5q0 -185 -224 -205l-11 -97h-104zM267 0h-120v117h120v-117z" />
    <glyph glyph-name="at" unicode="@" horiz-adv-x="828" 
d="M777 415q0 127 -78.5 201t-231.5 74q-201 0 -314 -123t-113 -318q0 -130 47.5 -229.5t148.5 -159.5t244 -60v101q-150 0 -231 89t-81 259q0 167 80 254t219 87q87 0 134.5 -42t47.5 -127v-18q-18 38 -58 59.5t-89 21.5q-93 0 -145 -65t-52 -179t52 -179t145 -65
q49 0 89 21.5t58 59.5v-72h128v410zM649 240q0 -69 -28 -108t-77 -39q-104 0 -104 147t104 147q49 0 77 -39t28 -108z" />
    <glyph glyph-name="A" unicode="A" horiz-adv-x="717" 
d="M565 -9l-55 146h-303l-51 -137h-151l270 677l173 17l263 -685zM252 256h214l-106 286z" />
    <glyph glyph-name="B" unicode="B" horiz-adv-x="687" 
d="M368 680q258 0 258 -185q0 -109 -99 -142q60 -13 89.5 -56.5t29.5 -101.5q0 -101 -63 -148t-191 -47h-316v680h292zM365 403q57 0 84.5 17.5t27.5 60.5q0 42 -28 61t-84 19h-142v-158h142zM223 290v-171h165q109 0 109 85q0 86 -109 86h-165z" />
    <glyph glyph-name="C" unicode="C" horiz-adv-x="672" 
d="M625 43q-103 -53 -227 -53q-161 0 -259.5 95.5t-98.5 254.5q0 160 99.5 255t265.5 95q128 0 227 -53l-23 -128q-97 62 -199 62q-101 0 -160.5 -60.5t-59.5 -170.5q0 -109 58.5 -170t155.5 -61q126 0 221 64v-130z" />
    <glyph glyph-name="D" unicode="D" horiz-adv-x="753" 
d="M76 0v680h258q170 0 268 -96t98 -244q0 -149 -98 -244.5t-268 -95.5h-258zM334 119q101 0 158.5 59.5t57.5 161.5t-57.5 161.5t-158.5 59.5h-111v-442h111z" />
    <glyph glyph-name="E" unicode="E" horiz-adv-x="617" 
d="M76 0v680h484v-119h-337v-155h300l17 -119h-317v-168h347v-119h-494z" />
    <glyph glyph-name="F" unicode="F" horiz-adv-x="600" 
d="M76 0v680h487v-119h-340v-188h304l16 -119h-320v-254h-147z" />
    <glyph glyph-name="G" unicode="G" horiz-adv-x="687" 
d="M490 325l140 17v-305q-97 -47 -240 -47q-161 0 -255.5 95t-94.5 255t94.5 255t255.5 95q126 0 227 -53l-17 -128q-96 62 -198 62q-96 0 -154 -60.5t-58 -170.5t58 -170.5t154 -60.5q49 0 88 14v202z" />
    <glyph glyph-name="H" unicode="H" horiz-adv-x="760" 
d="M536 672l147 17v-689h-147v287h-313v-287h-147v672l147 17v-283h313v266z" />
    <glyph glyph-name="I" unicode="I" horiz-adv-x="300" 
d="M223 0h-147v672l147 17v-689z" />
    <glyph glyph-name="J" unicode="J" horiz-adv-x="499" 
d="M429 680v-459q0 -111 -64.5 -171t-191.5 -60q-82 0 -163 18l17 119q56 -18 132 -18q56 0 89.5 28.5t33.5 86.5v337h-181v119h328z" />
    <glyph glyph-name="K" unicode="K" horiz-adv-x="687" 
d="M525 -10l-187 296h-115v-286h-147v680h147v-274h117l172 274h163l-211 -328l219 -345z" />
    <glyph glyph-name="L" unicode="L" horiz-adv-x="594" 
d="M76 0v672l147 17v-570h337l16 -119h-500z" />
    <glyph glyph-name="M" unicode="M" horiz-adv-x="893" 
d="M479 147h-83l-187 283v-430h-133v680h144l227 -345l226 345h143v-671l-146 -18v439z" />
    <glyph glyph-name="N" unicode="N" horiz-adv-x="767" 
d="M209 460v-460h-133v680h144l337 -453v445l133 17v-689h-143z" />
    <glyph glyph-name="O" unicode="O" horiz-adv-x="810" 
d="M405 -10q-170 0 -267.5 99.5t-97.5 250.5q0 150 97.5 250t267.5 100t267.5 -100t97.5 -250q0 -151 -97.5 -250.5t-267.5 -99.5zM405 571q-102 0 -158.5 -63.5t-56.5 -167.5t56.5 -167.5t158.5 -63.5t158.5 63.5t56.5 167.5t-56.5 167.5t-158.5 63.5z" />
    <glyph glyph-name="P" unicode="P" horiz-adv-x="667" 
d="M374 680q127 0 198 -62t71 -166t-71 -166.5t-198 -62.5h-151v-223h-147v680h298zM367 342q58 0 92 29.5t34 80.5t-34.5 80t-91.5 29h-144v-219h144z" />
    <glyph glyph-name="Q" unicode="Q" horiz-adv-x="810" 
d="M770 340q0 -164 -110 -263l72 -89l-101 -77l-82 102q-64 -23 -144 -23q-170 0 -267.5 99.5t-97.5 250.5q0 150 97.5 250t267.5 100t267.5 -100t97.5 -250zM405 109q34 0 68 8l-75 111l74 57l98 -105q50 62 50 160q0 104 -56.5 168t-158.5 64t-158.5 -64t-56.5 -168
t56.5 -167.5t158.5 -63.5z" />
    <glyph glyph-name="R" unicode="R" horiz-adv-x="685" 
d="M513 -10l-172 256h-118v-246h-147v680h301q255 0 255 -216q0 -74 -38.5 -124.5t-106.5 -71.5l178 -261zM223 365h140q118 0 118 99q0 97 -118 97h-140v-196z" />
    <glyph glyph-name="S" unicode="S" horiz-adv-x="603" 
d="M43 173q50 -31 114.5 -47.5t119.5 -16.5q133 0 133 76q0 24 -20 42.5t-51.5 30.5t-70.5 24t-77.5 29t-70 39t-51.5 59.5t-20 86.5q0 98 69.5 146t175.5 48q120 0 250 -53l-16 -129q-115 63 -214 63q-55 0 -85.5 -14t-30.5 -54q0 -31 37.5 -52t90.5 -36.5t106 -37
t90.5 -66.5t37.5 -112q0 -107 -76 -158t-187 -51q-142 0 -254 53v130z" />
    <glyph glyph-name="T" unicode="T" horiz-adv-x="600" 
d="M227 0v561h-214v119h574l-17 -119h-197v-561h-146z" />
    <glyph glyph-name="U" unicode="U" horiz-adv-x="747" 
d="M70 672l147 17v-412q0 -84 37 -126t120 -42t119.5 42t36.5 126v395l147 17v-442q0 -110 -77 -183.5t-226 -73.5q-151 0 -227.5 74t-76.5 183v425z" />
    <glyph glyph-name="V" unicode="V" horiz-adv-x="723" 
d="M11 672l147 17l203 -551l201 542h149l-268 -685h-172z" />
    <glyph glyph-name="W" unicode="W" horiz-adv-x="1027" 
d="M1010 680l-200 -685h-168l-133 451l-128 -451h-161l-204 677l140 17l151 -526l138 517h135l145 -517l144 517h141z" />
    <glyph glyph-name="X" unicode="X" horiz-adv-x="680" 
d="M516 -9l-186 256l-167 -247h-160l246 353l-227 319l160 17l161 -232l148 223h159l-222 -326l249 -345z" />
    <glyph glyph-name="Y" unicode="Y" horiz-adv-x="679" 
d="M407 212v-212h-147v214l-249 458l147 17l179 -338l175 329h155z" />
    <glyph glyph-name="Z" unicode="Z" horiz-adv-x="609" 
d="M556 119l18 -119h-539v96l342 465h-323v119h509v-96l-342 -465h335z" />
    <glyph glyph-name="bracketleft" unicode="[" horiz-adv-x="354" 
d="M69 -150v980h256v-99h-136v-782h140v-99h-260z" />
    <glyph glyph-name="backslash" unicode="\" horiz-adv-x="489" 
d="M350 0l-326 680h115l326 -680h-115z" />
    <glyph glyph-name="bracketright" unicode="]" horiz-adv-x="354" 
d="M285 -150h-260v99h140v782h-136v99h256v-980z" />
    <glyph glyph-name="asciicircum" unicode="^" horiz-adv-x="419" 
d="M210 417l160 -125l-38 -59l-122 78l-123 -78l-39 59z" />
    <glyph glyph-name="underscore" unicode="_" horiz-adv-x="569" 
d="M59 -144v106h450v-106h-450z" />
    <glyph glyph-name="a" unicode="a" horiz-adv-x="592" 
d="M557 95q19 0 30 4v-99q-35 -10 -77 -10q-104 0 -124 82q-64 -82 -177 -82q-77 0 -123 41t-46 104q0 85 65 126.5t178 41.5q35 0 97 -6v33q0 75 -113 75q-90 0 -179 -39l-24 102q96 42 222 42q115 0 174.5 -49.5t59.5 -140.5v-181q0 -23 7.5 -33.5t29.5 -10.5zM263 95
q65 0 117 50v66q-38 7 -87 7q-109 0 -109 -62q0 -30 21.5 -45.5t57.5 -15.5z" />
    <glyph glyph-name="b" unicode="b" horiz-adv-x="629" 
d="M364 510q102 0 162.5 -70.5t60.5 -189.5t-60.5 -189.5t-162.5 -70.5t-159 83l-13 -73h-127v713l140 17v-303q56 83 159 83zM317 95q61 0 93.5 42.5t32.5 112.5t-32.5 112.5t-93.5 42.5q-64 0 -112 -50v-209q48 -51 112 -51z" />
    <glyph glyph-name="c" unicode="c" horiz-adv-x="535" 
d="M330 95q71 0 150 38l23 -100q-81 -43 -187 -43q-128 0 -201 70.5t-73 189.5t73 189.5t201 70.5q106 0 187 -43l-23 -100q-79 38 -150 38q-64 0 -104.5 -40t-40.5 -115t40.5 -115t104.5 -40z" />
    <glyph glyph-name="d" unicode="d" horiz-adv-x="629" 
d="M265 510q101 0 159 -83v286l140 17v-730h-127l-13 73q-59 -83 -159 -83q-103 0 -163 70.5t-60 189.5t60 189.5t163 70.5zM312 95q65 0 111 51v209q-47 50 -111 50q-62 0 -94.5 -42.5t-32.5 -112.5t32.5 -112.5t94.5 -42.5z" />
    <glyph glyph-name="e" unicode="e" horiz-adv-x="593" 
d="M552 263q0 -11 -3 -53h-360q10 -58 48.5 -89.5t102.5 -31.5q90 0 167 37l23 -93q-81 -43 -204 -43q-139 0 -211.5 69.5t-72.5 190.5q0 118 72.5 189t195.5 71q125 0 183.5 -69.5t58.5 -177.5zM189 301h223q-2 111 -105 111q-99 0 -118 -111z" />
    <glyph glyph-name="f" unicode="f" horiz-adv-x="403" 
d="M23 500h78v53q0 83 48.5 130t144.5 47q76 0 126 -20l-24 -98q-33 13 -78 13q-77 0 -77 -75v-50h152v-105h-152v-395h-140v395h-78v105z" />
    <glyph glyph-name="g" unicode="g" horiz-adv-x="629" 
d="M564 500v-479q0 -120 -75 -185.5t-216 -65.5q-58 0 -118.5 12t-95.5 31l23 100q79 -38 184 -38q158 0 158 139v79q-59 -83 -159 -83q-101 0 -162 68t-61 182t60.5 182t162.5 68q101 0 159 -83l13 73h127zM423 166v189q-47 50 -111 50q-60 0 -93.5 -40.5t-33.5 -104.5
t33.5 -104.5t93.5 -40.5q65 0 111 51z" />
    <glyph glyph-name="h" unicode="h" horiz-adv-x="597" 
d="M362 510q85 0 130 -47.5t45 -139.5v-323h-140v320q0 85 -91 85q-57 0 -101 -47v-358h-140v713l140 17v-301q55 81 157 81z" />
    <glyph glyph-name="i" unicode="i" horiz-adv-x="270" 
d="M137 571l-99 93l99 93l95 -93zM205 0h-140v500h140v-500z" />
    <glyph glyph-name="j" unicode="j" horiz-adv-x="270" 
d="M137 571l-99 93l99 93l95 -93zM205 -61q0 -85 -44 -127t-123 -42q-58 0 -95 10l17 101q22 -6 49 -6q56 0 56 60v565h140v-561z" />
    <glyph glyph-name="k" unicode="k" horiz-adv-x="578" 
d="M425 0l-153 204h-67v-204h-140v713l140 17v-422h59l148 192h150l-176 -234l196 -266h-157z" />
    <glyph glyph-name="l" unicode="l" horiz-adv-x="270" 
d="M65 0v713l140 17v-730h-140z" />
    <glyph glyph-name="m" unicode="m" horiz-adv-x="925" 
d="M690 510q85 0 130 -47.5t45 -139.5v-323h-140v320q0 85 -91 85q-57 0 -101 -47q2 -22 2 -35v-323h-140v320q0 85 -91 85q-55 0 -99 -47v-358h-140v500h127l12 -72q55 82 156 82q124 0 161 -99q58 99 169 99z" />
    <glyph glyph-name="n" unicode="n" horiz-adv-x="597" 
d="M362 510q85 0 130 -47.5t45 -139.5v-323h-140v320q0 85 -91 85q-57 0 -101 -47v-358h-140v500h127l12 -72q55 82 158 82z" />
    <glyph glyph-name="o" unicode="o" horiz-adv-x="637" 
d="M319 510q130 0 203 -75t73 -185t-73 -185t-203 -75q-131 0 -204 74.5t-73 185.5t73 185.5t204 74.5zM318 95q66 0 99.5 45t33.5 110t-33.5 110t-99.5 45q-67 0 -100 -45t-33 -110t33 -110t100 -45z" />
    <glyph glyph-name="p" unicode="p" horiz-adv-x="629" 
d="M364 -10q-102 0 -159 83v-286l-140 -17v730h127l13 -73q56 83 159 83q102 0 162.5 -70.5t60.5 -189.5t-60.5 -189.5t-162.5 -70.5zM317 405q-64 0 -112 -50v-209q48 -51 112 -51q61 0 93.5 42.5t32.5 112.5t-32.5 112.5t-93.5 42.5z" />
    <glyph glyph-name="q" unicode="q" horiz-adv-x="629" 
d="M265 -10q-103 0 -163 70.5t-60 189.5t60 189.5t163 70.5q101 0 159 -83l13 73h127v-713l-140 -17v303q-59 -83 -159 -83zM312 405q-62 0 -94.5 -42.5t-32.5 -112.5t32.5 -112.5t94.5 -42.5q65 0 111 51v209q-47 50 -111 50z" />
    <glyph glyph-name="r" unicode="r" horiz-adv-x="407" 
d="M389 370q-60 0 -109 -17t-75 -44v-309h-140v500h127l11 -113q27 57 73.5 90t99.5 33z" />
    <glyph glyph-name="s" unicode="s" horiz-adv-x="505" 
d="M187 360q0 -24 29 -38.5t70 -24t82.5 -23t70.5 -44t29 -78.5q0 -79 -56.5 -120.5t-166.5 -41.5q-127 0 -208 43l24 98q79 -39 180 -39q84 0 84 55q0 21 -21 35t-52 20.5t-67.5 17.5t-67.5 25t-52 43.5t-21 71.5q0 75 58 112.5t157 37.5q125 0 209 -42l-24 -98
q-79 38 -182 38q-75 0 -75 -48z" />
    <glyph glyph-name="t" unicode="t" horiz-adv-x="410" 
d="M241 680v-180h149v-105h-149v-238q0 -62 71 -62q33 0 71 13l17 -98q-56 -20 -128 -20q-171 0 -171 163v242h-78v105h78v157z" />
    <glyph glyph-name="u" unicode="u" horiz-adv-x="597" 
d="M391 500h140v-500h-126l-13 72q-55 -82 -157 -82q-85 0 -130 47.5t-45 139.5v316l140 17v-330q0 -41 23.5 -63t67.5 -22q56 0 100 47v358z" />
    <glyph glyph-name="v" unicode="v" horiz-adv-x="602" 
d="M304 171l128 329h151l-221 -507h-123l-221 507h152z" />
    <glyph glyph-name="w" unicode="w" horiz-adv-x="849" 
d="M359 500h122l113 -348l101 348h135l-160 -507h-144l-106 315l-98 -315h-144l-160 507h135l102 -348z" />
    <glyph glyph-name="x" unicode="x" horiz-adv-x="555" 
d="M385 0l-112 159l-112 -159h-154l190 263l-178 237h155l104 -143l101 143h151l-173 -234l191 -266h-163z" />
    <glyph glyph-name="y" unicode="y" horiz-adv-x="605" 
d="M442 500h145l-233 -526q-45 -105 -97.5 -154.5t-144.5 -49.5q-51 0 -87 12l16 101q37 -8 67 -8q37 0 62.5 19t48.5 64l19 41l-220 501h145l143 -336z" />
    <glyph glyph-name="z" unicode="z" horiz-adv-x="503" 
d="M452 500v-85l-244 -310h263v-105h-440v85l244 310h-230v105h407z" />
    <glyph glyph-name="braceleft" unicode="{" horiz-adv-x="359" 
d="M327 -147q-237 0 -237 183q0 33 10 97t10 90q0 40 -21 56.5t-63 16.5v88q42 0 63 17t21 56q0 26 -10 90.5t-10 97.5q0 182 237 182v-98q-59 0 -79.5 -21t-20.5 -70q0 -26 8.5 -85t8.5 -82q0 -51 -32.5 -88t-94.5 -43q62 -6 94.5 -43t32.5 -88q0 -23 -8.5 -81.5
t-8.5 -85.5q0 -49 20.5 -70t79.5 -21v-98z" />
    <glyph glyph-name="bar" unicode="|" horiz-adv-x="229" 
d="M69 -125v930h90v-930h-90z" />
    <glyph glyph-name="braceright" unicode="}" horiz-adv-x="359" 
d="M332 296q-42 0 -63 -16.5t-21 -56.5q0 -26 10 -90t10 -97q0 -183 -237 -183v98q59 0 80 21t21 70q0 27 -9 85.5t-9 81.5q0 51 32.5 88t94.5 43q-62 6 -94.5 43t-32.5 88q0 23 9 82t9 85q0 49 -21 70t-80 21v98q237 0 237 -182q0 -33 -10 -97.5t-10 -90.5q0 -73 84 -73
v-88z" />
    <glyph glyph-name="asciitilde" unicode="~" horiz-adv-x="499" 
d="M444 387q0 -124 -86 -124q-26 0 -103.5 18t-91.5 18q-31 0 -31 -36h-73q0 124 86 124q21 0 100 -18.5t94 -18.5q14 0 23 9.5t9 27.5h73z" />
    <glyph glyph-name="exclamdown" unicode="&#xa1;" horiz-adv-x="268" 
d="M194 500v-117h-120v117h120zM178 320l29 -191v-309h-147v309l29 191h89z" />
    <glyph glyph-name="cent" unicode="&#xa2;" horiz-adv-x="535" 
d="M483 337q-72 68 -159 68q-61 0 -100 -40t-39 -115t39 -115t100 -40q87 0 159 68v-116q-58 -48 -147 -56v-116h-89v120q-99 15 -154.5 82.5t-55.5 172.5t55.5 172.5t154.5 82.5v125h89v-121q91 -8 147 -56v-116z" />
    <glyph glyph-name="sterling" unicode="&#xa3;" horiz-adv-x="660" 
d="M608 120v-120h-563v120h84v153h-84v106h84v106q0 103 68.5 154t179.5 51t223 -53v-130q-52 31 -106 47.5t-89 16.5q-57 0 -93.5 -24t-36.5 -76v-92h221v-106h-221v-153h333z" />
    <glyph glyph-name="currency" unicode="&#xa4;" horiz-adv-x="730" 
d="M671 507q-95 64 -215 64q-67 0 -115.5 -32t-70.5 -90h192v-72h-213q-1 -12 -1 -37q0 -15 2 -41h212v-73h-190q23 -56 70.5 -86.5t113.5 -30.5q120 0 215 64v-130q-103 -53 -227 -53q-129 0 -216.5 62.5t-116.5 173.5h-73v73h59q-1 13 -1 41q0 25 1 37h-59v72h71
q29 113 117 177t218 64q128 0 227 -53v-130z" />
    <glyph glyph-name="yen" unicode="&#xa5;" horiz-adv-x="716" 
d="M465 280h127v-106h-163v-174h-147v174h-163v106h128l-220 400h155l177 -329l175 329h155z" />
    <glyph glyph-name="brokenbar" unicode="&#xa6;" horiz-adv-x="234" 
d="M72 425v380h89v-380h-89zM72 -125v380h89v-380h-89z" />
    <glyph glyph-name="section" unicode="&#xa7;" horiz-adv-x="615" 
d="M549 638q-110 53 -240 53q-69 0 -124 -18t-93.5 -64.5t-38.5 -117.5q0 -61 29.5 -97t84 -54.5t114.5 -32t137 -41t136 -69.5q12 24 12 54q0 61 -37.5 99.5t-91 54t-106.5 25.5t-90.5 27.5t-37.5 47.5q0 68 126 68q118 0 220 -64v129zM60 -147q112 -53 251 -53
q108 0 181.5 48.5t73.5 152.5q0 61 -33 98.5t-90.5 57t-119.5 34t-135 40.5t-123 64q-12 -27 -12 -54q0 -52 27 -87.5t67 -51.5t87.5 -28.5t87.5 -20t67 -24t27 -42.5q0 -68 -126 -68q-54 0 -117 16.5t-113 47.5v-130z" />
    <glyph glyph-name="copyright" unicode="&#xa9;" horiz-adv-x="483" 
d="M241 280q-83 0 -141.5 59t-58.5 141q0 83 58.5 141.5t141.5 58.5t141.5 -58.5t58.5 -141.5t-58.5 -141.5t-141.5 -58.5zM241 295q77 0 131 54.5t54 130.5t-54 130.5t-131 54.5t-131 -54.5t-54 -130.5t54 -130.5t131 -54.5zM325 377q-38 -20 -79 -20q-56 0 -89.5 33.5
t-33.5 89.5t33.5 89.5t89.5 33.5q44 0 79 -20v-45q-35 22 -75 22q-34 0 -53.5 -21t-19.5 -59t20 -58.5t54 -20.5q43 0 74 22v-46z" />
    <glyph glyph-name="guillemotleft" unicode="&#xab;" horiz-adv-x="539" 
d="M299 452l-165 -202l165 -202h-92l-174 202l174 202h92zM499 452l-165 -202l165 -202h-92l-174 202l174 202h92z" />
    <glyph glyph-name="logicalnot" unicode="&#xac;" horiz-adv-x="565" 
d="M496 486v-327h-106v221h-344v106h450z" />
    <glyph glyph-name="uni00AD" unicode="&#xad;" horiz-adv-x="464" 
d="M57 240v106h350v-106h-350z" />
    <glyph glyph-name="registered" unicode="&#xae;" horiz-adv-x="483" 
d="M241 280q-83 0 -141.5 59t-58.5 141q0 83 58.5 141.5t141.5 58.5t141.5 -58.5t58.5 -141.5t-58.5 -141.5t-141.5 -58.5zM241 295q77 0 131 54.5t54 130.5t-54 130.5t-131 54.5t-131 -54.5t-54 -130.5t54 -130.5t131 -54.5zM292 361h57l-62 96q48 12 48 67q0 75 -89 75
h-93v-238h52v88h30zM204 491v65h38q39 0 39 -32q0 -33 -39 -33h-38z" />
    <glyph glyph-name="degree" unicode="&#xb0;" horiz-adv-x="280" 
d="M140 493q-41 0 -70 29t-29 70q0 40 29 69t70 29t70 -29t29 -69q0 -41 -28.5 -70t-70.5 -29zM140 548q18 0 30.5 13t12.5 31t-12.5 30.5t-30.5 12.5t-31 -12.5t-13 -30.5t13 -31t31 -13z" />
    <glyph glyph-name="plusminus" unicode="&#xb1;" horiz-adv-x="601" 
d="M546 429v-106h-192v-139h-106v139h-193v106h192v139h106v-139h193zM55 149h491v-107h-491v107z" />
    <glyph glyph-name="paragraph" unicode="&#xb6;" horiz-adv-x="667" 
d="M290 236q-125 0 -191 59t-66 163t66 163t191 59h126v-680h-113v236h-13zM583 0h-106v680h106v-680z" />
    <glyph glyph-name="periodcentered" unicode="&#xb7;" horiz-adv-x="231" 
d="M175 185h-119v119h119v-119z" />
    <glyph glyph-name="guillemotright" unicode="&#xbb;" horiz-adv-x="539" 
d="M39 452h92l174 -202l-174 -202h-92l165 202zM239 452h92l174 -202l-174 -202h-92l165 202z" />
    <glyph glyph-name="questiondown" unicode="&#xbf;" horiz-adv-x="517" 
d="M254 500h120v-117h-120v117zM371 140q-190 0 -190 -109q0 -50 31.5 -76t87.5 -26q98 0 183 60v-129q-88 -50 -214 -50q-106 0 -172.5 53.5t-66.5 154.5q0 186 225 205l11 97h103z" />
    <glyph glyph-name="multiply" unicode="&#xd7;" horiz-adv-x="514" 
d="M333 322l154 155l-75 75l-154 -155l-155 155l-75 -75l155 -155l-155 -154l75 -75l155 154l154 -154l75 75z" />
    <glyph glyph-name="divide" unicode="&#xf7;" horiz-adv-x="553" 
d="M341 450h-115v117h115v-117zM52 270v106h450v-106h-450zM341 80h-115v116h115v-116z" />
    <glyph glyph-name="uni060C" unicode="&#x60c;" horiz-adv-x="251" 
d="M165 289l78 -5q-43 -113 -45 -244h-115q10 137 82 249z" />
    <glyph glyph-name="uni061B" unicode="&#x61b;" horiz-adv-x="287" 
d="M177 654l78 -5q-43 -113 -45 -244h-115q10 137 82 249zM181 0h-120v119h120v-119z" />
    <glyph glyph-name="uni061F" unicode="&#x61f;" horiz-adv-x="493" 
d="M237 726q61 0 128.5 -33t126.5 -90l-86 -81q-96 87 -169 87q-38 0 -62 -20.5t-24 -53.5q0 -28 21 -49t80 -60q55 -36 80.5 -72t29.5 -91l-73 -32h-65v13q0 31 -20 55.5t-74 61.5q-57 40 -84.5 79t-27.5 99q0 83 61.5 135t157.5 52zM254 0v119h119v-119h-119z" />
    <glyph glyph-name="uni0621" unicode="&#x621;" horiz-adv-x="504" 
d="M228 140h257l-35 -140h-428v140h102q-39 64 -39 129q0 76 55 126.5t134 50.5q66 0 174 -41l-36 -112q-73 27 -117 27q-45 0 -70 -23.5t-26 -65.5t29 -91z" />
    <glyph glyph-name="uni0622" unicode="&#x622;" horiz-adv-x="289" 
d="M88 770q22 0 63 -18.5t65 -18.5q44 0 78 25l-1 -82q-35 -24 -77 -24q-24 0 -61.5 18.5t-56.5 18.5q-43 0 -49 -39h-64q0 56 28 88t75 32zM82 0v590l133 17v-607h-133z" />
    <glyph glyph-name="uni0623" unicode="&#x623;" horiz-adv-x="289" 
d="M149 732h127l-17 -76h-234v76h46q-12 24 -12 53q0 38 27 63.5t68 25.5q42 0 86 -19v-67q-38 15 -63 15q-19 0 -30.5 -9.5t-11.5 -24.5q0 -22 14 -37zM82 0v590l133 17v-607h-133z" />
    <glyph glyph-name="uni0624" unicode="&#x624;" horiz-adv-x="554" 
d="M409 663l-27 -93h-239v93h54q-16 26 -16 57q0 48 32 77t82 29q35 0 78 -21v-83q-41 15 -68 15q-49 0 -49 -38q0 -18 15 -36h138zM277 498q99 0 162.5 -65.5t63.5 -175.5v-234q0 -238 -399 -238l-14 109q145 0 212.5 30t68.5 100q-54 -24 -102 -24q-104 0 -168 67t-64 179
q0 109 68.5 180.5t171.5 71.5zM156 250q0 -58 34 -88t92 -29q40 0 89 13v102q0 54 -28.5 85t-76.5 31q-46 0 -78 -31.5t-32 -82.5z" />
    <glyph glyph-name="uni0625" unicode="&#x625;" horiz-adv-x="280" 
d="M206 730v-730h-133v713zM117 -186h126l-16 -76h-234v76h47q-13 23 -13 53q0 38 27 63.5t69 25.5t86 -19v-67q-39 15 -64 15q-19 0 -30.5 -9.5t-11.5 -24.5q0 -22 14 -37z" />
    <glyph glyph-name="uni0626" unicode="&#x626;" horiz-adv-x="968" 
d="M281 457l-27 -93h-239v93h54q-16 26 -16 57q0 48 32 77t82 29q35 0 78 -21v-83q-41 15 -68 15q-49 0 -49 -38q0 -18 15 -36h138zM838 488l80 -71v-410l-133 -17v358h-65q-98 0 -98 -108v-159q0 -147 -70 -221.5t-230 -74.5q-141 0 -216 66.5t-75 198.5q0 101 44 235
l107 -29q-30 -95 -30 -168q1 -81 44.5 -122t126.5 -41q90 0 128.5 39.5t38.5 134.5v172q0 100 53.5 158.5t153.5 58.5h141z" />
    <glyph glyph-name="uni0627" unicode="&#x627;" horiz-adv-x="280" 
d="M73 0v713l133 17v-730h-133z" />
    <glyph glyph-name="uni0628" unicode="&#x628;" horiz-adv-x="822" 
d="M636 487l133 16v-299q0 -203 -226 -204h-1h-263q-248 0 -248 223q0 73 21 165l114 -14q-13 -78 -13 -111q0 -63 39 -93t119 -30h229q97 0 97 109zM328 -152l95 96l98 -96l-96 -95z" />
    <glyph glyph-name="uni0629" unicode="&#x629;" horiz-adv-x="530" 
d="M264 645l-79 -78l-97 95l95 95l81 -78l80 78l97 -95l-96 -95zM265 497q103 0 170.5 -75.5t67.5 -182.5q0 -105 -67 -176.5t-171 -71.5t-171 71.5t-67 176.5q0 107 67.5 182.5t170.5 75.5zM265 127q48 0 79.5 33.5t31.5 81.5q0 49 -32 84.5t-79 35.5q-48 0 -80 -35.5
t-32 -84.5q0 -48 32 -81.5t80 -33.5z" />
    <glyph glyph-name="uni062A" unicode="&#x62a;" horiz-adv-x="822" 
d="M397 529l-79 -78l-97 95l95 95l81 -78l80 78l97 -95l-96 -95zM636 487l133 16v-299q0 -203 -226 -204h-1h-263q-248 0 -248 223q0 73 21 165l114 -14q-13 -78 -13 -111q0 -63 39 -93t119 -30h229q97 0 97 109z" />
    <glyph glyph-name="uni062B" unicode="&#x62b;" horiz-adv-x="822" 
d="M450 683l-64 -64l-64 64l63 64zM385 530l-79 -78l-97 95l95 95l81 -78l80 78l97 -95l-96 -95zM636 487l133 16v-299q0 -203 -226 -204h-1h-263q-248 0 -248 223q0 73 21 165l114 -14q-13 -78 -13 -111q0 -63 39 -93t119 -30h229q97 0 97 109z" />
    <glyph glyph-name="uni062C" unicode="&#x62c;" horiz-adv-x="617" 
d="M330 -140q75 0 200 35l37 -113q-149 -57 -265 -57q-123 0 -197.5 63.5t-74.5 176.5q0 256 409 304q-97 77 -151 105.5t-105 28.5q-25 0 -97 -14l-25 117q79 32 138 32q68 0 148 -45.5t246 -177.5l-46 -140q-182 -1 -286 -53t-104 -139q0 -58 45 -90.5t128 -32.5zM367 -73
l-97 95l95 96l98 -96z" />
    <glyph glyph-name="uni062D" unicode="&#x62d;" horiz-adv-x="617" 
d="M330 -140q75 0 200 35l37 -113q-149 -57 -265 -57q-123 0 -197.5 63.5t-74.5 176.5q0 256 409 304q-97 77 -151 105.5t-105 28.5q-25 0 -97 -14l-25 117q79 32 138 32q68 0 148 -45.5t246 -177.5l-46 -140q-182 -1 -286 -53t-104 -139q0 -58 45 -90.5t128 -32.5z" />
    <glyph glyph-name="uni062E" unicode="&#x62e;" horiz-adv-x="617" 
d="M521 647l-96 -96l-97 96l95 95zM330 -140q75 0 200 35l37 -113q-149 -57 -265 -57q-123 0 -197.5 63.5t-74.5 176.5q0 256 409 304q-97 77 -151 105.5t-105 28.5q-25 0 -97 -14l-25 117q79 32 138 32q68 0 148 -45.5t246 -177.5l-46 -140q-182 -1 -286 -53t-104 -139
q0 -58 45 -90.5t128 -32.5z" />
    <glyph glyph-name="uni062F" unicode="&#x62f;" horiz-adv-x="528" 
d="M31 0l-21 140h250q48 0 73 24t25 65l-1 41q0 47 -34 76.5t-88 29.5h-66v136h95q102 0 164 -61t62 -167l1 -80q-2 -204 -232 -204h-228z" />
    <glyph glyph-name="uni0630" unicode="&#x630;" horiz-adv-x="528" 
d="M239 582l-97 96l95 95l98 -95zM31 0l-21 140h250q48 0 73 24t25 65l-1 41q0 47 -34 76.5t-88 29.5h-66v136h95q102 0 164 -61t62 -167l1 -80q-2 -204 -232 -204h-228z" />
    <glyph glyph-name="uni0631" unicode="&#x631;" horiz-adv-x="319" 
d="M-10 -215l-10 109q153 0 153 136l-1 457l132 16v-478q0 -127 -67 -183.5t-207 -56.5z" />
    <glyph glyph-name="uni0632" unicode="&#x632;" horiz-adv-x="319" 
d="M199 558l-97 96l95 95l98 -95zM-10 -215l-10 109q153 0 153 136l-1 457l132 16v-478q0 -127 -67 -183.5t-207 -56.5z" />
    <glyph glyph-name="uni0633" unicode="&#x633;" horiz-adv-x="1325" 
d="M1141 487l132 16v-299q0 -99 -52 -151.5t-153 -52.5q-81 0 -166 55q-60 -55 -158 -55q-63 0 -125 40q-14 -121 -89 -188t-208 -67q-141 0 -216 66.5t-75 198.5q0 101 44 235l107 -29q-30 -95 -30 -168q1 -81 44.5 -122t126.5 -41q167 0 167 187v375l132 16v-333
q56 -30 109 -30q97 0 97 109l-1 134l133 17v-196q0 -22 -5 -49q45 -15 90 -15q97 0 97 109z" />
    <glyph glyph-name="uni0634" unicode="&#x634;" horiz-adv-x="1325" 
d="M957 743l-64 -64l-64 64l63 64zM892 590l-79 -78l-97 95l95 95l81 -78l80 78l97 -95l-96 -95zM1141 487l132 16v-299q0 -99 -52 -151.5t-153 -52.5q-81 0 -166 55q-60 -55 -158 -55q-63 0 -125 40q-14 -121 -89 -188t-208 -67q-141 0 -216 66.5t-75 198.5q0 101 44 235
l107 -29q-30 -95 -30 -168q1 -81 44.5 -122t126.5 -41q167 0 167 187v375l132 16v-333q56 -30 109 -30q97 0 97 109l-1 134l133 17v-196q0 -22 -5 -49q45 -15 90 -15q97 0 97 109z" />
    <glyph glyph-name="uni0635" unicode="&#x635;" horiz-adv-x="1265" 
d="M1002 521q100 0 163 -63.5t63 -163.5q0 -61 -30 -179l-99 -115h-487q-22 -103 -95.5 -159t-194.5 -56q-141 0 -216 66.5t-75 198.5q0 101 44 235l107 -29q-30 -95 -30 -168q1 -81 44.5 -122t126.5 -41q167 0 167 187v375l132 16v-98q144 66 225 91t155 25zM1070 140
q25 84 25 140q-1 47 -35 76t-88 29q-59 0 -114 -15t-236 -75v-155h448z" />
    <glyph glyph-name="uni0636" unicode="&#x636;" horiz-adv-x="1265" 
d="M870 681l-96 -96l-97 96l95 95zM1002 521q100 0 163 -63.5t63 -163.5q0 -61 -30 -179l-99 -115h-487q-22 -103 -95.5 -159t-194.5 -56q-141 0 -216 66.5t-75 198.5q0 101 44 235l107 -29q-30 -95 -30 -168q1 -81 44.5 -122t126.5 -41q167 0 167 187v375l132 16v-98
q144 66 225 91t155 25zM1070 140q25 84 25 140q-1 47 -35 76t-88 29q-59 0 -114 -15t-236 -75v-155h448z" />
    <glyph glyph-name="uni0637" unicode="&#x637;" horiz-adv-x="925" 
d="M663 521q99 0 162.5 -63.5t63.5 -163.5q0 -63 -31 -179l-98 -115h-548h-64h-113l-22 140h135v573l132 17v-326q145 66 226.5 91.5t156.5 25.5zM731 140q25 89 25 140q-1 47 -35 76t-88 29q-62 0 -122 -16t-231 -75v-154h451z" />
    <glyph glyph-name="uni0638" unicode="&#x638;" horiz-adv-x="925" 
d="M585 681l-96 -96l-97 96l95 95zM663 521q99 0 162.5 -63.5t63.5 -163.5q0 -63 -31 -179l-98 -115h-548h-64h-113l-22 140h135v573l132 17v-326q145 66 226.5 91.5t156.5 25.5zM731 140q25 89 25 140q-1 47 -35 76t-88 29q-62 0 -122 -16t-231 -75v-154h451z" />
    <glyph glyph-name="uni0639" unicode="&#x639;" horiz-adv-x="590" 
d="M543 -107l36 -113q-140 -55 -260 -55q-124 0 -197.5 56t-73.5 158q0 127 125 201q-81 90 -81 189q0 93 62.5 151.5t165.5 58.5q66 0 188 -41l-36 -113q-83 23 -130 23q-58 0 -93.5 -29t-35.5 -76q0 -62 57 -121q22 7 39 11l201 55l5 -124l-180 -45q-164 -40 -164 -124
q0 -96 165 -96q96 0 207 34z" />
    <glyph glyph-name="uni063A" unicode="&#x63a;" horiz-adv-x="590" 
d="M405 699l-96 -96l-97 96l95 95zM543 -107l36 -113q-140 -55 -260 -55q-124 0 -197.5 56t-73.5 158q0 127 125 201q-81 90 -81 189q0 93 62.5 151.5t165.5 58.5q66 0 188 -41l-36 -113q-83 23 -130 23q-58 0 -93.5 -29t-35.5 -76q0 -62 57 -121q22 7 39 11l201 55l5 -124
l-180 -45q-164 -40 -164 -124q0 -96 165 -96q96 0 207 34z" />
    <glyph glyph-name="uni0640" unicode="&#x640;" horiz-adv-x="194" 
d="M194 140q10 0 10 -9v-121q0 -10 -10 -10h-194q-10 0 -10 10v121q0 9 10 9h194z" />
    <glyph glyph-name="uni0641" unicode="&#x641;" horiz-adv-x="942" 
d="M760 670l-96 -96l-97 96l95 95zM670 505q103 0 171.5 -67.5t68.5 -169.5q0 -123 -76.5 -195.5t-208.5 -72.5h-227h-119q-247 0 -247 223q0 77 20 165l114 -14q-12 -72 -12 -111q0 -63 38.5 -93t119.5 -30h154q-34 71 -34 128q0 105 67 171t171 66zM628 140q69 0 109 34
t40 93q0 48 -31.5 79.5t-78.5 31.5t-80 -34t-33 -81q0 -57 36 -123h38z" />
    <glyph glyph-name="uni0642" unicode="&#x642;" horiz-adv-x="786" 
d="M509 653l-79 -78l-97 95l95 95l81 -78l80 78l97 -95l-96 -95zM512 495q100 -1 163 -66.5t63 -174.5v-198q0 -135 -89.5 -203t-287.5 -68q-154 0 -242 69t-88 196q0 101 44 235l107 -29q-30 -95 -30 -168q1 -180 229 -180q95 0 157 31t74 89q-58 -28 -111 -28
q-101 0 -164 66t-63 176t68 182t170 71zM393 246q0 -55 33 -84t88 -29q44 0 92 14v97q0 53 -28.5 84.5t-75.5 32.5t-78 -31t-31 -84z" />
    <glyph glyph-name="uni0643" unicode="&#x643;" horiz-adv-x="852" 
d="M642 713l132 17l-1 -522q0 -208 -230 -208h-1h-263q-248 0 -248 223q0 73 21 165l114 -14q-13 -78 -13 -111q0 -63 39 -93t119 -30h231h1h1q50 0 73.5 27t23.5 85zM543 443l-28 -92h-238v92h53q-16 26 -16 57q0 47 32.5 76.5t82.5 29.5q35 0 78 -21v-83q-41 15 -68 15
q-23 0 -36 -10t-13 -27q0 -19 15 -37h138z" />
    <glyph glyph-name="uni0644" unicode="&#x644;" horiz-adv-x="681" 
d="M623 737v-607h-1v-35q0 -145 -76.5 -227.5t-223.5 -82.5q-141 0 -216 66.5t-75 198.5q0 101 44 235l107 -29q-30 -95 -30 -168q1 -81 44.5 -122t126.5 -41q167 0 167 187v375v233z" />
    <glyph glyph-name="uni0645" unicode="&#x645;" horiz-adv-x="699" 
d="M435 497q102 0 169.5 -76t67.5 -182q0 -105 -67 -176.5t-170 -71.5q-82 0 -142 44.5t-84 118.5q-48 -16 -48 -86v-321l-132 -17l-1 344q0 204 174 223q18 87 81.5 143.5t151.5 56.5zM435 127q48 0 79 33t31 82t-31.5 84.5t-78.5 35.5q-48 0 -80 -35.5t-32 -84.5
q0 -48 32 -81.5t80 -33.5z" />
    <glyph glyph-name="uni0646" unicode="&#x646;" horiz-adv-x="681" 
d="M310 399l-97 96l95 95l98 -95zM322 -215q-141 0 -216 66.5t-75 198.5q0 101 44 235l107 -29q-30 -95 -30 -168q1 -81 44.5 -122t126.5 -41q167 0 167 187v375l132 16v-408q0 -145 -76.5 -227.5t-223.5 -82.5z" />
    <glyph glyph-name="uni0647" unicode="&#x647;" horiz-adv-x="530" 
d="M265 -9q-104 0 -171 71.5t-67 176.5q0 107 67.5 182.5t170.5 75.5t170.5 -75.5t67.5 -182.5q0 -105 -67 -176.5t-171 -71.5zM265 127q48 0 79.5 33.5t31.5 81.5q0 49 -32 84.5t-79 35.5q-48 0 -80 -35.5t-32 -84.5q0 -48 32 -81.5t80 -33.5z" />
    <glyph glyph-name="uni0648" unicode="&#x648;" horiz-adv-x="554" 
d="M277 498q99 0 162.5 -65.5t63.5 -175.5v-234q0 -238 -399 -238l-14 109q145 0 212.5 30t68.5 100q-54 -24 -102 -24q-104 0 -168 67t-64 179q0 109 68.5 180.5t171.5 71.5zM156 250q0 -58 34 -88t92 -29q40 0 89 13v102q0 54 -28.5 85t-76.5 31q-46 0 -78 -31.5
t-32 -82.5z" />
    <glyph glyph-name="uni0649" unicode="&#x649;" horiz-adv-x="968" 
d="M838 488l80 -71v-410l-133 -17v358h-65q-98 0 -98 -108v-159q0 -147 -70 -221.5t-230 -74.5q-141 0 -216 66.5t-75 198.5q0 101 44 235l107 -29q-30 -95 -30 -168q1 -81 44.5 -122t126.5 -41q90 0 128.5 39.5t38.5 134.5v172q0 100 53.5 158.5t153.5 58.5h141z" />
    <glyph glyph-name="uni064A" unicode="&#x64a;" horiz-adv-x="968" 
d="M838 488l80 -71v-410l-133 -17v358h-65q-98 0 -98 -108v-159q0 -147 -70 -221.5t-230 -74.5q-141 0 -216 66.5t-75 198.5q0 101 44 235l107 -29q-30 -95 -30 -168q1 -81 44.5 -122t126.5 -41q90 0 128.5 39.5t38.5 134.5v172q0 100 53.5 158.5t153.5 58.5h141zM372 -335
l77 75l97 -95l-96 -96l-78 76l-76 -76l-97 96l96 95z" />
    <glyph glyph-name="uni064B" unicode="&#x64b;" 
d="M128 760l12 -58l-264 -54l-13 56zM148 656l12 -56l-265 -56l-11 57z" />
    <glyph glyph-name="uni064C" unicode="&#x64c;" 
d="M75 802q41 0 71.5 -31.5t30.5 -72.5q0 -94 -100 -114l-213 -41l-34 54q42 21 42 54q0 38 -54 44l13 55q49 -4 77.5 -29t28.5 -61q0 -20 -12 -43l60 13q-17 28 -18 58q-2 49 29 81.5t79 32.5zM63 647q50 9 50 47q0 19 -12 31t-31 12q-18 0 -30 -13.5t-12 -33.5
q0 -25 16 -47z" />
    <glyph glyph-name="uni064D" unicode="&#x64d;" 
d="M128 -32l12 -58l-264 -54l-13 56zM148 -136l12 -56l-265 -56l-11 57z" />
    <glyph glyph-name="uni064E" unicode="&#x64e;" 
d="M144 707l13 -66l-271 -55l-12 65z" />
    <glyph glyph-name="uni064F" unicode="&#x64f;" 
d="M65 802q41 0 71.5 -31t30.5 -73q0 -46 -26.5 -75t-74.5 -38l-198 -39l-12 62l118 23q-17 31 -17 63q0 47 30.5 77.5t77.5 30.5zM53 647q50 11 50 48q0 18 -12 30.5t-31 12.5q-18 0 -30.5 -13.5t-12.5 -33.5q0 -23 17 -48z" />
    <glyph glyph-name="uni0650" unicode="&#x650;" 
d="M144 -63l13 -66l-271 -55l-12 65z" />
    <glyph glyph-name="uni0651" unicode="&#x651;" 
d="M145 738q19 -60 19 -102q0 -39 -23.5 -62t-62.5 -23t-63 32q-8 -26 -29.5 -41.5t-51.5 -15.5q-75 0 -89 88l-9 61l62 9l10 -55q7 -40 33 -40q33 0 33 38q0 6 -2 20l-9 48l59 11l10 -50q4 -21 14.5 -31.5t24.5 -9.5q13 0 21 8.5t8 22.5q0 23 -16 68z" />
    <glyph glyph-name="uni0652" unicode="&#x652;" 
d="M8 759q48 0 75.5 -31t27.5 -83t-31 -82.5t-82 -30.5q-47 0 -74 29.5t-27 82.5q0 54 30.5 84.5t80.5 30.5zM3 694q-17 0 -29.5 -13t-12.5 -35q0 -49 43 -49q19 0 31 12t12 35t-12.5 36.5t-31.5 13.5z" />
    <glyph glyph-name="uni0653" unicode="&#x653;" 
d="M-47 744q22 0 63 -18.5t65 -18.5q43 0 78 24l-1 -82q-35 -24 -77 -24q-24 0 -61.5 18.5t-56.5 18.5q-43 0 -49 -39h-64q0 56 28 88.5t75 32.5z" />
    <glyph glyph-name="uni0654" unicode="&#x654;" 
d="M11 718h128l-17 -76h-234v76h47q-13 23 -13 53q0 38 27 63.5t69 25.5t86 -19v-67q-39 15 -64 15q-19 0 -30.5 -9.5t-11.5 -24.5q0 -21 13 -37z" />
    <glyph glyph-name="uni0655" unicode="&#x655;" 
d="M-2 -177h127l-16 -76h-234v76h47q-13 23 -13 53q0 38 27 63.5t69 25.5t86 -19v-67q-39 15 -64 15q-19 0 -30.5 -9.5t-11.5 -24.5q0 -21 13 -37z" />
    <glyph glyph-name="uni0656" unicode="&#x656;" 
d="M47 -234l-84 20v72q0 51 -12 90h82q14 -39 14 -90v-92z" />
    <glyph glyph-name="uni0660" unicode="&#x660;" horiz-adv-x="293" 
d="M145 404l105 -105l-104 -103l-105 103z" />
    <glyph glyph-name="uni0661" unicode="&#x661;" horiz-adv-x="305" 
d="M201 680l35 -680h-133l-35 659z" />
    <glyph glyph-name="uni0662" unicode="&#x662;" horiz-adv-x="481" 
d="M512 680l-35 -140h-274l28 -540h-133l-30 574l128 106h316z" />
    <glyph glyph-name="uni0663" unicode="&#x663;" horiz-adv-x="645" 
d="M612 580q10 -211 -147 -211q-55 0 -106 38q-35 -38 -88 -38q-27 0 -55 13l20 -382h-133l-35 659l133 21l9 -175q19 -10 41 -10q60 0 56 83l-5 81l94 21l6 -100q3 -37 -2 -71q22 -14 47 -14q59 0 56 83l-5 81l108 21z" />
    <glyph glyph-name="uni0664" unicode="&#x664;" horiz-adv-x="489" 
d="M266 120q89 0 198 29l-16 -132q-106 -30 -187 -30q-112 0 -171 43t-59 125q0 118 135 187q-119 39 -119 161q0 79 57.5 133t143.5 54q67 0 183 -45l-36 -112q-79 26 -124 26q-49 0 -77.5 -21t-28.5 -58q0 -44 51 -69t118 -14l64 17l25 -100l-180 -47q-42 -11 -65 -33.5
t-23 -52.5q0 -61 111 -61z" />
    <glyph glyph-name="uni0665" unicode="&#x665;" horiz-adv-x="587" 
d="M294 680q99 0 176.5 -118t77.5 -306q0 -123 -69 -196t-188 -73q-115 0 -184 72.5t-69 195.5q0 111 33 208.5t92 157t131 59.5zM290 547q-55 0 -95 -82t-40 -186q0 -79 36 -119t102 -40q67 0 103.5 40.5t36.5 118.5q0 110 -40 189t-103 79z" />
    <glyph glyph-name="uni0666" unicode="&#x666;" horiz-adv-x="454" 
d="M258 680l127 -108l-30 -572h-132l27 540h-283l33 140h258z" />
    <glyph glyph-name="uni0667" unicode="&#x667;" horiz-adv-x="554" 
d="M426 680h154l-235 -683l-122 -11l-250 694h154l154 -510z" />
    <glyph glyph-name="uni0668" unicode="&#x668;" horiz-adv-x="554" 
d="M581 0h-154l-154 511l-145 -511h-154l235 683l122 11z" />
    <glyph glyph-name="uni0669" unicode="&#x669;" horiz-adv-x="556" 
d="M359 691l128 -108l-30 -583h-133l12 233q-47 -16 -92 -16q-100 0 -163 60.5t-63 161.5q0 112 70 181.5t179 69.5zM256 351q47 0 87 13l9 186h-96q-52 0 -84.5 -30.5t-32.5 -75.5q0 -43 30.5 -68t86.5 -25z" />
    <glyph glyph-name="uni066A" unicode="&#x66a;" horiz-adv-x="599" 
d="M137 507l-97 96l96 95l97 -95zM218 0h-114l326 680h114zM466 26l-98 95l96 96l97 -96z" />
    <glyph glyph-name="uni066B" unicode="&#x66b;" horiz-adv-x="277" 
d="M82 -130l-77 5q42 109 45 244h114q-10 -137 -82 -249z" />
    <glyph glyph-name="uni066C" unicode="&#x66c;" horiz-adv-x="277" 
d="M85 -130l-77 5q43 113 45 244h115q-10 -136 -83 -249z" />
    <glyph glyph-name="uni066D" unicode="&#x66d;" horiz-adv-x="362" 
d="M256 232l80 -46l-32 -57l-81 46v-93h-65v93l-82 -46l-32 57l80 46l-80 47l32 57l82 -47v93h65v-93l81 47l32 -57z" />
    <glyph glyph-name="uni066E" unicode="&#x66e;" horiz-adv-x="822" 
d="M636 487l133 16v-299q0 -203 -226 -204h-1h-263q-248 0 -248 223q0 73 21 165l114 -14q-13 -78 -13 -111q0 -63 39 -93t119 -30h229q97 0 97 109z" />
    <glyph glyph-name="uni066F" unicode="&#x66f;" horiz-adv-x="786" 
d="M512 495q100 -1 163 -66.5t63 -174.5v-198q0 -135 -89.5 -203t-287.5 -68q-154 0 -242 69t-88 196q0 101 44 235l107 -29q-30 -95 -30 -168q1 -180 229 -180q95 0 157 31t74 89q-58 -28 -111 -28q-101 0 -164 66t-63 176t68 182t170 71zM393 246q0 -55 33 -84t88 -29
q44 0 92 14v97q0 53 -28.5 84.5t-75.5 32.5t-78 -31t-31 -84z" />
    <glyph glyph-name="uni0670" unicode="&#x670;" 
d="M-49 782l84 -20v-72q0 -51 12 -90h-82q-14 39 -14 90v92z" />
    <glyph glyph-name="uni06A1" unicode="&#x6a1;" horiz-adv-x="942" 
d="M669 505q103 0 171.5 -67.5t68.5 -169.5q0 -123 -76 -195.5t-208 -72.5h-227h-119q-248 0 -248 223q0 73 21 165l114 -14q-13 -78 -13 -111q0 -63 39 -93t119 -30h155q-34 71 -34 128q0 105 67 171t170 66zM628 140q69 0 109 34t40 93q0 48 -32 79.5t-79 31.5
q-46 0 -79 -34t-33 -81q0 -56 35 -123h39z" />
    <glyph glyph-name="uni06A4" unicode="&#x6a4;" horiz-adv-x="942" 
d="M733 806l-64 -64l-64 64l63 64zM668 653l-79 -78l-97 95l95 95l81 -78l80 78l97 -95l-96 -95zM670 505q103 0 171.5 -67.5t68.5 -169.5q0 -123 -76.5 -195.5t-208.5 -72.5h-227h-119q-247 0 -247 223q0 77 20 165l114 -14q-12 -72 -12 -111q0 -63 38.5 -93t119.5 -30h154
q-34 71 -34 128q0 105 67 171t171 66zM628 140q69 0 109 34t40 93q0 48 -31.5 79.5t-78.5 31.5t-80 -34t-33 -81q0 -57 36 -123h38z" />
    <glyph glyph-name="uni06BA" unicode="&#x6ba;" horiz-adv-x="681" 
d="M322 -215q-141 0 -216 66.5t-75 198.5q0 101 44 235l107 -29q-30 -95 -30 -168q1 -81 44.5 -122t126.5 -41q167 0 167 187v375l132 16v-408q0 -145 -76.5 -227.5t-223.5 -82.5z" />
    <glyph glyph-name="endash" unicode="&#x2013;" horiz-adv-x="664" 
d="M57 240v106h550v-106h-550z" />
    <glyph glyph-name="emdash" unicode="&#x2014;" horiz-adv-x="964" 
d="M57 240v106h850v-106h-850z" />
    <glyph glyph-name="quoteleft" unicode="&#x2018;" horiz-adv-x="251" 
d="M127 682l77 -5q-42 -109 -45 -244h-114q10 135 82 249z" />
    <glyph glyph-name="quoteright" unicode="&#x2019;" horiz-adv-x="250" 
d="M123 433l-78 5q43 113 45 244h115q-10 -137 -82 -249z" />
    <glyph glyph-name="quotesinglbase" unicode="&#x201a;" horiz-adv-x="217" 
d="M85 -130l-77 5q43 113 45 244h115q-10 -136 -83 -249z" />
    <glyph glyph-name="quotedblleft" unicode="&#x201c;" horiz-adv-x="418" 
d="M127 682l77 -5q-42 -109 -45 -244h-114q10 135 82 249zM295 682l77 -5q-42 -109 -45 -244h-114q10 135 82 249z" />
    <glyph glyph-name="quotedblright" unicode="&#x201d;" horiz-adv-x="418" 
d="M123 433l-78 5q43 113 45 244h115q-10 -137 -82 -249zM291 433l-78 5q43 113 45 244h115q-10 -137 -82 -249z" />
    <glyph glyph-name="quotedblbase" unicode="&#x201e;" horiz-adv-x="385" 
d="M85 -130l-77 5q43 113 45 244h115q-10 -136 -83 -249zM253 -130l-77 5q43 113 45 244h115q-10 -136 -83 -249z" />
    <glyph glyph-name="dagger" unicode="&#x2020;" horiz-adv-x="675" 
d="M625 385l-237 15l15 -600h-130l15 600l-238 -15v116l238 -15l-15 194h130l-15 -194l237 15v-116z" />
    <glyph glyph-name="daggerdbl" unicode="&#x2021;" horiz-adv-x="675" 
d="M388 385l15 -122l-15 -121h237v-116l-237 15l15 -241h-130l15 242l-238 -16v116h238l-15 121l15 122h-238v116l238 -15l-15 194h130l-15 -194l237 15v-116h-237z" />
    <glyph glyph-name="bullet" unicode="&#x2022;" horiz-adv-x="329" 
d="M246 170h-164v150h164v-150z" />
    <glyph glyph-name="ellipsis" unicode="&#x2026;" horiz-adv-x="599" 
d="M172 0h-113v117h113v-117zM356 0h-113v117h113v-117zM540 0h-113v117h113v-117z" />
    <glyph glyph-name="perthousand" unicode="&#x2030;" horiz-adv-x="1196" 
d="M196 322q-79 0 -120.5 52t-41.5 132t41.5 132t120.5 52t120 -52t41 -132t-41 -132t-120 -52zM469 370h-77l153 310h111zM196 625q-81 0 -81 -119t81 -119q80 0 80 119t-80 119zM630 -8q-79 0 -120.5 52t-41.5 132t41.5 132t120.5 52t120 -52t41 -132t-41 -132t-120 -52z
M1002 -8q-79 0 -120 52t-41 132t41 132t120 52t120.5 -52t41.5 -132t-41.5 -132t-120.5 -52zM352 310h78l-154 -310h-111zM630 295q-81 0 -81 -119t81 -119q80 0 80 119t-80 119zM1002 295q-41 0 -61 -32t-20 -87t20 -87t61 -32q81 0 81 119t-81 119z" />
    <glyph glyph-name="guilsinglleft" unicode="&#x2039;" horiz-adv-x="339" 
d="M299 452l-165 -202l165 -202h-92l-174 202l174 202h92z" />
    <glyph glyph-name="guilsinglright" unicode="&#x203a;" horiz-adv-x="339" 
d="M39 452h92l174 -202l-174 -202h-92l165 202z" />
    <glyph glyph-name="fraction" unicode="&#x2044;" horiz-adv-x="491" 
d="M385 680h106l-384 -680h-107z" />
    <glyph glyph-name="Euro" unicode="&#x20ac;" horiz-adv-x="730" 
d="M671 507q-95 64 -215 64q-67 0 -115.5 -32t-70.5 -90h192v-72h-213q-1 -12 -1 -37q0 -15 2 -41h212v-73h-190q23 -56 70.5 -86.5t113.5 -30.5q120 0 215 64v-130q-103 -53 -227 -53q-129 0 -216.5 62.5t-116.5 173.5h-73v73h59q-1 13 -1 41q0 25 1 37h-59v72h71
q29 113 117 177t218 64q128 0 227 -53v-130z" />
    <glyph glyph-name="trademark" unicode="&#x2122;" horiz-adv-x="734" 
d="M144 379v246h-88v56h243v-56h-87v-246h-68zM513 379h-29l-81 198v-198h-63v302h83l78 -187l79 187h83v-302h-67v198z" />
    <glyph glyph-name="partialdiff" unicode="&#x2202;" horiz-adv-x="637" 
d="M80 640q58 29 101.5 39.5t104.5 10.5q64 0 116.5 -20.5t87 -54.5t58 -80.5t33.5 -96.5t10 -104q0 -154 -69.5 -249t-210.5 -95q-127 0 -199 67.5t-72 169.5q0 89 59.5 146t156.5 57q124 0 192 -90q0 231 -177 231q-50 0 -92 -13t-99 -47v129zM441 254q-21 34 -57 56.5
t-79 22.5q-51 0 -84.5 -30t-33.5 -81q0 -50 34.5 -81.5t86.5 -31.5q63 0 95.5 42.5t37.5 102.5z" />
    <glyph glyph-name="emptyset" unicode="&#x2205;" horiz-adv-x="598" 
d="M468 456q91 -71 91 -206q0 -111 -68 -185.5t-192 -74.5q-59 0 -109 21l-37 -61h-81l57 93q-91 74 -91 207q0 111 68.5 185.5t192.5 74.5q58 0 108 -21l38 61h81zM357 408q-25 14 -58 14q-65 0 -94 -49.5t-29 -122.5q0 -52 23 -92zM241 93q25 -15 58 -15q65 0 94 49.5
t29 122.5q0 53 -24 92z" />
    <glyph glyph-name="product" unicode="&#x220f;" horiz-adv-x="739" 
d="M226 561v-561h-147v680h581v-680h-146v561h-288z" />
    <glyph glyph-name="summation" unicode="&#x2211;" horiz-adv-x="600" 
d="M49 680h499v-119h-329l175 -221l-175 -220h329v-120h-499v116l178 224l-178 224v116z" />
    <glyph glyph-name="minus" unicode="&#x2212;" horiz-adv-x="575" 
d="M62 270v106h450v-106h-450z" />
    <glyph glyph-name="radical" unicode="&#x221a;" horiz-adv-x="786" 
d="M787 680l-261 -685h-174l-100 275h-220v106h329l82 -238l192 542h152z" />
    <glyph glyph-name="infinity" unicode="&#x221e;" horiz-adv-x="783" 
d="M547 591q87 0 135.5 -72t48.5 -176q0 -113 -47.5 -184t-137.5 -71q-112 0 -155 132q-19 -62 -58.5 -97t-95.5 -35q-91 0 -138 71t-47 184q0 104 48.5 176t134.5 72q51 0 92 -34t64 -97q24 64 65 97.5t91 33.5zM252 227q73 0 96 125q-28 101 -98 101q-37 0 -60.5 -29
t-23.5 -84q0 -53 24 -83t62 -30zM532 227q38 0 61.5 30t23.5 83q0 55 -23.5 84t-59.5 29q-70 0 -98 -101q23 -125 96 -125z" />
    <glyph glyph-name="integral" unicode="&#x222b;" horiz-adv-x="386" 
d="M123 533q0 81 39 119t120 38q48 0 89 -10v-102q-25 7 -59 7q-25 0 -37 -12t-12 -43v-573q0 -81 -39 -119t-120 -38q-48 0 -89 10v102q27 -7 59 -7q25 0 37 12t12 43v573z" />
    <glyph glyph-name="approxequal" unicode="&#x2248;" horiz-adv-x="512" 
d="M450 497q0 -71 -23.5 -97.5t-62.5 -26.5q-25 0 -102.5 18.5t-91.5 18.5t-23 -9.5t-9 -27.5h-72q0 71 23.5 97.5t62.5 26.5q21 0 100 -18t94 -18q14 0 23 9t9 27h72zM450 273q0 -71 -23.5 -97.5t-62.5 -26.5q-25 0 -102.5 18.5t-91.5 18.5q-32 0 -32 -37h-72q0 71 23 97.5
t63 26.5q21 0 100 -18t94 -18q14 0 23 9t9 27h72z" />
    <glyph glyph-name="notequal" unicode="&#x2260;" horiz-adv-x="559" 
d="M356 380l-56 -115h204v-106h-252l-79 -159h-114l79 159h-84v106h132l56 115h-188v106h236l95 194h114l-94 -194h99v-106h-148z" />
    <glyph glyph-name="lessequal" unicode="&#x2264;" horiz-adv-x="563" 
d="M507 206l-451 95v150l451 95v-106l-333 -64l333 -64v-106zM507 42h-451v100h451v-100z" />
    <glyph glyph-name="greaterequal" unicode="&#x2265;" horiz-adv-x="563" 
d="M56 206v106l333 64l-333 64v106l451 -95v-150zM56 42v100h451v-100h-451z" />
    <glyph glyph-name="lozenge" unicode="&#x25ca;" horiz-adv-x="575" 
d="M544 340l-196 -350h-123l-192 350l192 350h123zM394 340l-104 190l-106 -190l106 -190z" />
    <glyph glyph-name="uniFBB2" unicode="&#xfbb2;" 
d="M1 557l-97 96l95 95l98 -95z" />
    <glyph glyph-name="uniFBB3" unicode="&#xfbb3;" 
d="M1 -260l-97 95l95 96l98 -96z" />
    <glyph glyph-name="uniFBB4" unicode="&#xfbb4;" 
d="M177 638l-96 -95l-81 79l-79 -79l-97 95l95 95l81 -78l80 78z" />
    <glyph glyph-name="uniFBB5" unicode="&#xfbb5;" 
d="M174 -183l-96 -96l-78 76l-76 -76l-97 96l96 95l77 -75l77 75z" />
    <glyph glyph-name="uniFBB6" unicode="&#xfbb6;" 
d="M65 784l-64 -64l-64 64l63 64zM177 648l-96 -95l-81 79l-79 -79l-97 95l95 95l81 -78l80 78z" />
    <glyph glyph-name="uniFBB9" unicode="&#xfbb9;" 
d="M80 -83l97 -95l-96 -96l-81 80l-79 -80l-97 96l95 95l81 -79zM-58 -306l58 59l59 -59l-58 -58z" />
    <glyph glyph-name="uniFD3E" unicode="&#xfd3e;" horiz-adv-x="352" 
d="M327 -147q-237 0 -237 183q0 33 10 97t10 90q0 40 -21 56.5t-63 16.5v88q42 0 63 17t21 56q0 26 -10 90.5t-10 97.5q0 182 237 182v-98q-59 0 -79.5 -21t-20.5 -70q0 -26 8.5 -85t8.5 -82q0 -51 -32.5 -88t-94.5 -43q62 -6 94.5 -43t32.5 -88q0 -23 -8.5 -81.5
t-8.5 -85.5q0 -49 20.5 -70t79.5 -21v-98z" />
    <glyph glyph-name="uniFD3F" unicode="&#xfd3f;" horiz-adv-x="352" 
d="M334 296q-42 0 -63 -16.5t-21 -56.5q0 -26 10 -90t10 -97q0 -183 -237 -183v98q59 0 80 21t21 70q0 27 -9 85.5t-9 81.5q0 51 32.5 88t94.5 43q-62 6 -94.5 43t-32.5 88q0 23 9 82t9 85q0 49 -21 70t-80 21v98q237 0 237 -182q0 -33 -10 -97.5t-10 -90.5q0 -73 84 -73
v-88z" />
    <glyph glyph-name="uni0627.short" horiz-adv-x="289" 
d="M82 0v590l133 17v-607h-133z" />
    <glyph glyph-name="uniFE8E.short" horiz-adv-x="309" 
d="M309 0q-230 0 -230 208l-1 382l133 17v-355q0 -58 23.5 -85t73.5 -27q10 0 10 -9l1 -121q0 -10 -10 -10z" />
    <glyph glyph-name="uni066E.medi.alt" horiz-adv-x="383" 
d="M383 140q10 0 10 -9v-121q0 -10 -10 -10q-86 0 -161 75q-63 -75 -222 -75q-10 0 -10 10l1 121q0 9 10 9q67 0 99 26t32 83v134l132 17v-196q0 -18 -1 -27q55 -37 120 -37z" />
    <glyph glyph-name="uni066E.init.alt" horiz-adv-x="365" 
d="M0 0q-10 0 -10 10l1 121q0 9 10 9h82q97 0 97 109v238l132 16v-299q0 -204 -230 -204h-82z" />
    <glyph glyph-name="dotcenterar" 
d="M1 159l-97 96l95 95l98 -95z" />
    <glyph glyph-name="waslaar" 
d="M51 666q38 0 65 -25.5t27 -62.5q0 -46 -41.5 -72t-112.5 -26q-72 0 -146 30l18 58q23 -8 43 -12q47 60 80 85t67 25zM-9 544q76 0 76 34q0 10 -8.5 17t-20.5 7q-30 0 -83 -56q26 -2 36 -2z" />
    <glyph glyph-name="hamzacenterar" 
d="M12 573h138l-27 -93h-239v93h54q-16 26 -16 57q0 48 32 77t82 29q34 0 78 -21v-83q-41 15 -68 15q-49 0 -49 -38q0 -18 15 -36z" />
    <glyph glyph-name="hamzaaboveDammaar" 
d="M151 1031q0 -46 -26.5 -75t-74.5 -38l-198 -39l-12 62l118 23q-17 31 -17 63q0 47 30.5 77.5t77.5 30.5q41 0 71.5 -31t30.5 -73zM1 1024q0 -23 17 -48l19 4q50 11 50 48q0 18 -12 30.5t-31 12.5q-18 0 -30.5 -13.5t-12.5 -33.5zM-2 755q0 -21 13 -37h128l-17 -76h-234
v76h47q-13 23 -13 53q0 38 27 63.5t69 25.5t86 -19v-67q-39 15 -64 15q-19 0 -30.5 -9.5t-11.5 -24.5z" />
    <glyph glyph-name="hamzaaboveDammatanar" 
d="M164 1033q0 -94 -100 -114l-213 -41l-34 54q42 21 42 54q0 38 -54 44l13 55q49 -4 77.5 -29t28.5 -61q0 -20 -11 -42l59 12q-17 28 -18 58q-2 49 29 81.5t79 32.5q41 0 71.5 -31.5t30.5 -72.5zM15 1025q0 -25 16 -47l19 4q50 9 50 47q0 19 -12 31t-31 12q-18 0 -30 -13.5
t-12 -33.5zM-2 755q0 -21 13 -37h128l-17 -76h-234v76h47q-13 23 -13 53q0 38 27 63.5t69 25.5t86 -19v-67q-39 15 -64 15q-19 0 -30.5 -9.5t-11.5 -24.5z" />
    <glyph glyph-name="hamzaaboveFathaar" 
d="M126 1004l13 -66l-271 -55l-12 65zM-2 755q0 -21 13 -37h128l-17 -76h-234v76h47q-13 23 -13 53q0 38 27 63.5t69 25.5t86 -19v-67q-39 15 -64 15q-19 0 -30.5 -9.5t-11.5 -24.5z" />
    <glyph glyph-name="hamzaaboveFathatanar" 
d="M106 1097l12 -58l-264 -54l-13 56zM126 993l12 -56l-265 -56l-11 57zM11 718h128l-17 -76h-234v76h47q-13 23 -13 53q0 38 27 63.5t69 25.5t86 -19v-67q-39 15 -64 15q-19 0 -30.5 -9.5t-11.5 -24.5q0 -21 13 -37z" />
    <glyph glyph-name="hamzaaboveSukunar" 
d="M7 899q-47 0 -74 29.5t-27 82.5q0 54 30.5 84.5t80.5 30.5q48 0 75.5 -31t27.5 -83t-31 -82.5t-82 -30.5zM12 1061q-17 0 -29.5 -13t-12.5 -35q0 -49 43 -49q19 0 31 12t12 35t-12.5 36.5t-31.5 13.5zM11 718h128l-17 -76h-234v76h47q-13 23 -13 53q0 38 27 63.5t69 25.5
t86 -19v-67q-39 15 -64 15q-19 0 -30.5 -9.5t-11.5 -24.5q0 -21 13 -37z" />
    <glyph glyph-name="hamzabelowKasraar" 
d="M125 -207l-16 -76h-234v76h47q-13 23 -13 53q0 38 27 63.5t69 25.5t86 -19v-67q-39 15 -64 15q-19 0 -30.5 -9.5t-11.5 -24.5q0 -22 14 -37h126zM133 -311l13 -66l-271 -55l-12 65z" />
    <glyph glyph-name="hamzabelowKasratanar" 
d="M125 -207l-16 -76h-234v76h47q-13 23 -13 53q0 38 27 63.5t69 25.5t86 -19v-67q-39 15 -64 15q-19 0 -30.5 -9.5t-11.5 -24.5q0 -22 14 -37h126zM131 -310l12 -58l-264 -54l-13 56zM151 -414l12 -56l-265 -56l-11 57z" />
    <glyph glyph-name="shaddaAlefabovear" 
d="M27 758h-82q-14 39 -14 90v92l84 -20v-72q0 -51 12 -90zM145 738q19 -60 19 -102q0 -39 -23.5 -62t-62.5 -23t-63 32q-8 -26 -29.5 -41.5t-51.5 -15.5q-75 0 -89 88l-9 61l62 9l10 -55q7 -40 33 -40q33 0 33 38q0 6 -2 20l-9 48l59 11l10 -50q4 -21 14.5 -31.5t24.5 -9.5
q13 0 21 8.5t8 22.5q0 23 -16 68z" />
    <glyph glyph-name="shaddaDammaar" 
d="M-161 747l-12 62l118 24q-16 29 -16 62q0 48 30 78.5t77 30.5q42 0 72 -31t30 -73q0 -95 -100 -114zM-12 892q0 -24 17 -47l19 4q50 9 50 47q0 19 -12 31t-30 12q-19 0 -31.5 -13.5t-12.5 -33.5zM145 738q19 -60 19 -102q0 -39 -23.5 -62t-62.5 -23t-63 32
q-8 -26 -29.5 -41.5t-51.5 -15.5q-75 0 -89 88l-9 61l62 9l10 -55q7 -40 33 -40q33 0 33 38q0 6 -2 20l-9 48l59 11l10 -50q4 -21 14.5 -31.5t24.5 -9.5q13 0 21 8.5t8 22.5q0 23 -16 68z" />
    <glyph glyph-name="shaddaDammatanar" 
d="M-195 801q42 21 42 54q0 38 -54 44l13 55q49 -4 77.5 -29t28.5 -61q0 -20 -11 -42l59 12q-17 28 -18 58q-2 49 29 81.5t79 32.5q41 0 71.5 -31.5t30.5 -72.5q0 -94 -100 -114l-213 -41zM3 894q0 -25 16 -47l19 4q50 9 50 47q0 19 -12 31t-31 12q-18 0 -30 -13.5
t-12 -33.5zM145 738q19 -60 19 -102q0 -39 -23.5 -62t-62.5 -23t-63 32q-8 -26 -29.5 -41.5t-51.5 -15.5q-75 0 -89 88l-9 61l62 9l10 -55q7 -40 33 -40q33 0 33 38q0 6 -2 20l-9 48l59 11l10 -50q4 -21 14.5 -31.5t24.5 -9.5q13 0 21 8.5t8 22.5q0 23 -16 68z" />
    <glyph glyph-name="shaddaFathaar" 
d="M111 807l-270 -55l-13 65l270 56zM145 738q19 -60 19 -102q0 -39 -23.5 -62t-62.5 -23t-63 32q-8 -26 -29.5 -41.5t-51.5 -15.5q-75 0 -89 88l-9 61l62 9l10 -55q7 -40 33 -40q33 0 33 38q0 6 -2 20l-9 48l59 11l10 -50q4 -21 14.5 -31.5t24.5 -9.5q13 0 21 8.5t8 22.5
q0 23 -16 68z" />
    <glyph glyph-name="shaddaFathatanar" 
d="M77 966l12 -58l-264 -55l-13 57zM109 805l-265 -55l-11 56l264 55zM145 738q19 -60 19 -102q0 -39 -23.5 -62t-62.5 -23t-63 32q-8 -26 -29.5 -41.5t-51.5 -15.5q-75 0 -89 88l-9 61l62 9l10 -55q7 -40 33 -40q33 0 33 38q0 6 -2 20l-9 48l59 11l10 -50q4 -21 14.5 -31.5
t24.5 -9.5q13 0 21 8.5t8 22.5q0 23 -16 68z" />
    <glyph glyph-name="shaddaKasraar" 
d="M15 583q-8 -26 -29.5 -41.5t-51.5 -15.5q-75 0 -89 88l-9 61l62 9l10 -55q7 -40 33 -40q33 0 33 38q0 6 -2 20l-9 48l59 11l10 -50q4 -21 14.5 -31.5t24.5 -9.5q13 0 21 8.5t8 22.5q0 23 -16 68l61 24q19 -60 19 -102q0 -39 -23.5 -62t-62.5 -23t-63 32zM163 521l13 -66
l-271 -55l-12 65z" />
    <glyph glyph-name="shaddaKasratanar" 
d="M15 583q-8 -26 -29.5 -41.5t-51.5 -15.5q-75 0 -89 88l-9 61l62 9l10 -55q7 -40 33 -40q33 0 33 38q0 6 -2 20l-9 48l59 11l10 -50q4 -21 14.5 -31.5t24.5 -9.5q13 0 21 8.5t8 22.5q0 23 -16 68l61 24q19 -60 19 -102q0 -39 -23.5 -62t-62.5 -23t-63 32zM158 518l12 -58
l-264 -54l-13 56zM178 414l12 -56l-265 -56l-11 57z" />
    <glyph glyph-name="terminal1" horiz-adv-x="554" 
d="M77 388l114 -14q-12 -72 -12 -111q0 -63 38.5 -93t119.5 -30h230q10 0 10 -9v-121q0 -10 -10 -10h-263q-247 0 -247 223q0 77 20 165z" />
    <glyph glyph-name="terminal2" horiz-adv-x="542" 
d="M85 440l114 -14q-17 -101 -17 -155q0 -67 38 -99t120 -32h227q10 0 10 -9v-121q0 -10 -10 -10h-260q-249 0 -249 232q0 78 27 208z" />
    <glyph glyph-name="terminal1.alt" horiz-adv-x="467" 
d="M78 388l114 -14q-12 -81 -12 -111q0 -63 38.5 -93t119.5 -30h105q10 0 10 -9v-121q0 -10 -10 -10h-137q-248 0 -248 223q0 71 20 165z" />
    <glyph glyph-name="terminal3" horiz-adv-x="385" 
d="M393 -75q10 0 10 -10v-120q0 -10 -10 -10h-365l-28 140h393z" />
    <glyph glyph-name="terminal4" horiz-adv-x="385" 
d="M384 -75l-28 -140h-365q-10 0 -10 10v120q0 10 10 10h393z" />
    <glyph glyph-name="waslear.alt" horiz-adv-x="218" 
d="M79 194q63 -54 139 -54q10 0 10 -9v-121q0 -10 -10 -10q-122 0 -198 118z" />
    </font>
</defs>
</svg>
